<svg width="32" height="96" viewBox="0 0 32 96" fill="none" xmlns="http://www.w3.org/2000/svg">
<g clip-path="url(#clip0_1174_34380)">
<path d="M17.7356 21.3686C17.7906 21.348 17.825 21.3308 17.8611 21.3214C22.2117 20.1777 24.7624 15.9416 23.7967 11.4184C23.1356 8.32419 22.4322 5.23941 21.7557 2.14872C21.6927 1.86163 21.5781 1.63833 21.3244 1.49951H10.6865C10.4173 1.6407 10.3102 1.88348 10.246 2.17649C9.71159 4.60615 9.15882 7.03227 8.63182 9.4637C8.39926 10.5353 8.1117 11.6092 8.02578 12.6968C7.73937 16.3297 9.84105 19.6886 13.1393 20.9994C13.51 21.1465 13.896 21.2534 14.2787 21.3799L15.4329 21.5624V21.9044C15.4329 24.135 15.4289 26.365 15.4369 28.5956C15.4381 28.9412 15.3155 29.1674 15.0285 29.3204H11.3413V30.4995H20.6971V29.3204H16.9847C16.6891 29.1568 16.57 28.9258 16.5717 28.5655C16.582 26.3449 16.5768 24.1244 16.5768 21.9038V21.5624L17.7351 21.3686H17.7356ZM9.38279 11.4267C10.0163 8.53685 10.6596 5.64937 11.3017 2.76131C11.3057 2.7424 11.3172 2.72586 11.3384 2.67919C11.8408 2.67919 12.3506 2.67919 12.8621 2.67919V2.68097H19.2359C19.2622 2.68097 19.288 2.68097 19.3143 2.68097H19.3963C19.823 2.68097 20.2543 2.67919 20.6966 2.67919C21.3862 5.81655 22.0748 8.94859 22.7713 12.1155C22.2002 11.8768 21.6772 11.6269 21.1342 11.4403C20.6038 11.2583 20.0579 11.1112 19.5085 11.0008C18.4437 10.7863 17.4447 11.061 16.4955 11.5431C15.6678 11.9631 14.8618 12.4303 14.0358 12.8533C13.4441 13.1563 12.8237 13.4163 12.1455 13.2928C11.7955 13.229 11.4278 13.1238 11.1293 12.9342C10.5565 12.5715 10.0232 12.1403 9.48418 11.7226C9.41487 11.6689 9.36332 11.5153 9.38279 11.4261V11.4267ZM9.14393 13.2296C9.14507 13.1741 9.1508 13.1179 9.15481 13.0536C9.62509 13.3643 10.0536 13.675 10.5072 13.942C11.5985 14.5847 12.7487 14.7064 13.9075 14.183C14.7513 13.802 15.5515 13.3206 16.3878 12.92C16.9715 12.6406 17.5678 12.3642 18.1865 12.1905C19.0291 11.9536 19.8539 12.2141 20.6421 12.5142C21.3186 12.7712 21.9665 13.1091 22.6327 13.3962C22.8274 13.4801 22.8727 13.597 22.8549 13.802C22.5548 17.2631 20.0487 19.9284 16.7114 20.326C12.712 20.8027 9.05915 17.3777 9.14335 13.2296H9.14393Z" fill="#535353"/>
</g>
<g clip-path="url(#clip1_1174_34380)">
<path d="M17.7356 53.3686C17.7906 53.348 17.825 53.3308 17.8611 53.3214C22.2117 52.1777 24.7624 47.9416 23.7967 43.4184C23.1356 40.3242 22.4322 37.2394 21.7557 34.1487C21.6927 33.8616 21.5781 33.6383 21.3244 33.4995H10.6865C10.4173 33.6407 10.3102 33.8835 10.246 34.1765C9.71159 36.6061 9.15882 39.0323 8.63182 41.4637C8.39926 42.5353 8.1117 43.6092 8.02578 44.6968C7.73937 48.3297 9.84105 51.6886 13.1393 52.9994C13.51 53.1465 13.896 53.2534 14.2787 53.3799L15.4329 53.5624V53.9044C15.4329 56.135 15.4289 58.365 15.4369 60.5956C15.4381 60.9412 15.3155 61.1674 15.0285 61.3204H11.3413V62.4995H20.6971V61.3204H16.9847C16.6891 61.1568 16.57 60.9258 16.5717 60.5655C16.582 58.3449 16.5768 56.1244 16.5768 53.9038V53.5624L17.7351 53.3686H17.7356ZM9.38279 43.4267C10.0163 40.5368 10.6596 37.6494 11.3017 34.7613C11.3057 34.7424 11.3172 34.7259 11.3384 34.6792C11.8408 34.6792 12.3506 34.6792 12.8621 34.6792V34.681H19.2359C19.2622 34.681 19.288 34.681 19.3143 34.681H19.3963C19.823 34.681 20.2543 34.6792 20.6966 34.6792C21.3862 37.8165 22.0748 40.9486 22.7713 44.1155C22.2002 43.8768 21.6772 43.6269 21.1342 43.4403C20.6038 43.2583 20.0579 43.1112 19.5085 43.0008C18.4437 42.7863 17.4447 43.061 16.4955 43.5431C15.6678 43.9631 14.8618 44.4303 14.0358 44.8533C13.4441 45.1563 12.8237 45.4163 12.1455 45.2928C11.7955 45.229 11.4278 45.1238 11.1293 44.9342C10.5565 44.5715 10.0232 44.1403 9.48418 43.7226C9.41487 43.6689 9.36332 43.5153 9.38279 43.4261V43.4267ZM9.14393 45.2296C9.14507 45.1741 9.1508 45.1179 9.15481 45.0536C9.62509 45.3643 10.0536 45.675 10.5072 45.942C11.5985 46.5847 12.7487 46.7064 13.9075 46.183C14.7513 45.802 15.5515 45.3206 16.3878 44.92C16.9715 44.6406 17.5678 44.3642 18.1865 44.1905C19.0291 43.9536 19.8539 44.2141 20.6421 44.5142C21.3186 44.7712 21.9665 45.1091 22.6327 45.3962C22.8274 45.4801 22.8727 45.597 22.8549 45.802C22.5548 49.2631 20.0487 51.9284 16.7114 52.326C12.712 52.8027 9.05915 49.3777 9.14335 45.2296H9.14393Z" fill="#B7ABA5"/>
</g>
<g clip-path="url(#clip2_1174_34380)">
<path d="M17.7356 85.3686C17.7906 85.348 17.825 85.3308 17.8611 85.3214C22.2117 84.1777 24.7624 79.9416 23.7967 75.4184C23.1356 72.3242 22.4322 69.2394 21.7557 66.1487C21.6927 65.8616 21.5781 65.6383 21.3244 65.4995H10.6865C10.4173 65.6407 10.3102 65.8835 10.246 66.1765C9.71159 68.6061 9.15882 71.0323 8.63182 73.4637C8.39926 74.5353 8.1117 75.6092 8.02578 76.6968C7.73937 80.3297 9.84105 83.6886 13.1393 84.9994C13.51 85.1465 13.896 85.2534 14.2787 85.3799L15.4329 85.5624V85.9044C15.4329 88.135 15.4289 90.365 15.4369 92.5956C15.4381 92.9412 15.3155 93.1674 15.0285 93.3204H11.3413V94.4995H20.6971V93.3204H16.9847C16.6891 93.1568 16.57 92.9258 16.5717 92.5655C16.582 90.3449 16.5768 88.1244 16.5768 85.9038V85.5624L17.7351 85.3686H17.7356ZM9.38279 75.4267C10.0163 72.5368 10.6596 69.6494 11.3017 66.7613C11.3057 66.7424 11.3172 66.7259 11.3384 66.6792C11.8408 66.6792 12.3506 66.6792 12.8621 66.6792V66.681H19.2359C19.2622 66.681 19.288 66.681 19.3143 66.681H19.3963C19.823 66.681 20.2543 66.6792 20.6966 66.6792C21.3862 69.8165 22.0748 72.9486 22.7713 76.1155C22.2002 75.8768 21.6772 75.6269 21.1342 75.4403C20.6038 75.2583 20.0579 75.1112 19.5085 75.0008C18.4437 74.7863 17.4447 75.061 16.4955 75.5431C15.6678 75.9631 14.8618 76.4303 14.0358 76.8533C13.4441 77.1563 12.8237 77.4163 12.1455 77.2928C11.7955 77.229 11.4278 77.1238 11.1293 76.9342C10.5565 76.5715 10.0232 76.1403 9.48418 75.7226C9.41487 75.6689 9.36332 75.5153 9.38279 75.4261V75.4267ZM9.14393 77.2296C9.14507 77.1741 9.1508 77.1179 9.15481 77.0536C9.62509 77.3643 10.0536 77.675 10.5072 77.942C11.5985 78.5847 12.7487 78.7064 13.9075 78.183C14.7513 77.802 15.5515 77.3206 16.3878 76.92C16.9715 76.6406 17.5678 76.3642 18.1865 76.1905C19.0291 75.9536 19.8539 76.2141 20.6421 76.5142C21.3186 76.7712 21.9665 77.1091 22.6327 77.3962C22.8274 77.4801 22.8727 77.597 22.8549 77.802C22.5548 81.2631 20.0487 83.9284 16.7114 84.326C12.712 84.8027 9.05915 81.3777 9.14335 77.2296H9.14393Z" fill="white"/>
</g>
<defs>
<clipPath id="clip0_1174_34380">
<rect width="16" height="29" fill="white" transform="translate(8 1.5)"/>
</clipPath>
<clipPath id="clip1_1174_34380">
<rect width="16" height="29" fill="white" transform="translate(8 33.5)"/>
</clipPath>
<clipPath id="clip2_1174_34380">
<rect width="16" height="29" fill="white" transform="translate(8 65.5)"/>
</clipPath>
</defs>
</svg>
