<svg width="32" height="96" viewBox="0 0 32 96" fill="none" xmlns="http://www.w3.org/2000/svg">
<g clip-path="url(#clip0_2120_106379)">
<path d="M24.0017 21.5566C24.0017 24.6608 21.8876 29.1556 21.8032 29.3327H10.197C10.1126 29.1556 7.99854 24.6608 7.99854 21.5566C7.99854 19.166 9.05791 17.4004 10.0845 15.6921C11.0688 14.0514 12.0017 12.4993 12.0017 10.4421V8.2181H11.0032V7.10872H12.0017V5.44206C12.0017 3.91081 13.122 2.66602 14.5001 2.66602H17.5001C18.8782 2.66602 19.9985 3.91081 19.9985 5.44206V7.10872H20.997V8.2181H19.9985V10.4421C19.9985 12.4941 20.9314 14.0462 21.9157 15.6921C22.9423 17.4004 24.0017 19.166 24.0017 21.5566ZM13.0001 7.10872H19.0001V5.44206C19.0001 4.52539 18.3251 3.77539 17.5001 3.77539H14.5001C13.6751 3.77539 13.0001 4.52539 13.0001 5.44206V7.10872ZM11.1017 15.9993H20.8985C19.9376 14.3848 19.0001 12.6921 19.0001 10.4421V8.2181H13.0001V10.4421C13.0001 12.6921 12.0673 14.3848 11.1017 15.9993ZM22.9985 21.5566C22.9985 19.8379 22.347 18.4733 21.5595 17.1139H10.4407C9.65322 18.4733 9.00166 19.8431 9.00166 21.5566C9.00166 23.9473 10.3704 27.2285 10.811 28.2233H21.1938C21.6298 27.2285 22.9985 23.9421 22.9985 21.5566Z" fill="#535353"/>
</g>
<g clip-path="url(#clip1_2120_106379)">
<path d="M24.0017 53.5566C24.0017 56.6608 21.8876 61.1556 21.8032 61.3327H10.197C10.1126 61.1556 7.99854 56.6608 7.99854 53.5566C7.99854 51.166 9.05791 49.4004 10.0845 47.6921C11.0688 46.0514 12.0017 44.4993 12.0017 42.4421V40.2181H11.0032V39.1087H12.0017V37.4421C12.0017 35.9108 13.122 34.666 14.5001 34.666H17.5001C18.8782 34.666 19.9985 35.9108 19.9985 37.4421V39.1087H20.997V40.2181H19.9985V42.4421C19.9985 44.4941 20.9314 46.0462 21.9157 47.6921C22.9423 49.4004 24.0017 51.166 24.0017 53.5566ZM13.0001 39.1087H19.0001V37.4421C19.0001 36.5254 18.3251 35.7754 17.5001 35.7754H14.5001C13.6751 35.7754 13.0001 36.5254 13.0001 37.4421V39.1087ZM11.1017 47.9993H20.8985C19.9376 46.3848 19.0001 44.6921 19.0001 42.4421V40.2181H13.0001V42.4421C13.0001 44.6921 12.0673 46.3848 11.1017 47.9993ZM22.9985 53.5566C22.9985 51.8379 22.347 50.4733 21.5595 49.1139H10.4407C9.65322 50.4733 9.00166 51.8431 9.00166 53.5566C9.00166 55.9473 10.3704 59.2285 10.811 60.2233H21.1938C21.6298 59.2285 22.9985 55.9421 22.9985 53.5566Z" fill="#B7ABA5"/>
</g>
<g clip-path="url(#clip2_2120_106379)">
<path d="M24.0017 85.5566C24.0017 88.6608 21.8876 93.1556 21.8032 93.3327H10.197C10.1126 93.1556 7.99854 88.6608 7.99854 85.5566C7.99854 83.166 9.05791 81.4004 10.0845 79.6921C11.0688 78.0514 12.0017 76.4993 12.0017 74.4421V72.2181H11.0032V71.1087H12.0017V69.4421C12.0017 67.9108 13.122 66.666 14.5001 66.666H17.5001C18.8782 66.666 19.9985 67.9108 19.9985 69.4421V71.1087H20.997V72.2181H19.9985V74.4421C19.9985 76.4941 20.9314 78.0462 21.9157 79.6921C22.9423 81.4004 24.0017 83.166 24.0017 85.5566ZM13.0001 71.1087H19.0001V69.4421C19.0001 68.5254 18.3251 67.7754 17.5001 67.7754H14.5001C13.6751 67.7754 13.0001 68.5254 13.0001 69.4421V71.1087ZM11.1017 79.9993H20.8985C19.9376 78.3848 19.0001 76.6921 19.0001 74.4421V72.2181H13.0001V74.4421C13.0001 76.6921 12.0673 78.3848 11.1017 79.9993ZM22.9985 85.5566C22.9985 83.8379 22.347 82.4733 21.5595 81.1139H10.4407C9.65322 82.4733 9.00166 83.8431 9.00166 85.5566C9.00166 87.9473 10.3704 91.2285 10.811 92.2233H21.1938C21.6298 91.2285 22.9985 87.9421 22.9985 85.5566Z" fill="white"/>
</g>
<defs>
<clipPath id="clip0_2120_106379">
<rect width="24" height="26.6667" fill="white" transform="translate(4 2.66602)"/>
</clipPath>
<clipPath id="clip1_2120_106379">
<rect width="24" height="26.6667" fill="white" transform="translate(4 34.666)"/>
</clipPath>
<clipPath id="clip2_2120_106379">
<rect width="24" height="26.6667" fill="white" transform="translate(4 66.666)"/>
</clipPath>
</defs>
</svg>
