<svg width="32" height="96" viewBox="0 0 32 96" fill="none" xmlns="http://www.w3.org/2000/svg">
<g clip-path="url(#clip0_1174_34383)">
<path d="M15.4699 1.00001C15.7891 1.17062 15.8912 1.43469 15.8863 1.79519C15.87 3.07352 15.906 4.35285 15.875 5.63118C15.7886 9.20111 16.5632 12.5777 18.0733 15.799C18.7596 17.2628 19.4399 18.7295 20.1094 20.2017C20.3398 20.7086 20.3205 20.7175 20.8642 20.7175C22.2377 20.7175 23.6117 20.7506 24.9837 20.7081C26.3207 20.6665 27.0587 21.6442 26.9961 22.7153C26.9502 23.5021 27.0193 24.2953 26.78 25.0653C26.3527 26.441 25.4869 27.4731 24.3004 28.25C24.1238 28.3657 24.0483 28.4814 24.0592 28.6936C24.0774 29.0442 24.0661 29.3963 24.0636 29.7474C24.0582 30.5045 23.5747 30.9931 22.8199 30.9941C20.6871 30.9965 18.5538 30.9951 16.4211 30.9951C13.9667 30.9951 11.5123 30.9911 9.05783 31C8.73765 31.001 8.50873 30.8942 8.29659 30.6568C7.39771 29.65 6.57776 28.5897 5.94232 27.392C4.77801 25.1988 4.71388 22.9408 5.63398 20.67C6.2334 19.1914 6.93396 17.7528 7.61034 16.3064C8.60099 14.1878 9.42735 12.0139 9.7579 9.68673C9.90689 8.63686 9.99224 7.57216 10.0218 6.51142C10.0657 4.94132 10.0421 3.36875 10.0278 1.79717C10.0243 1.43716 10.1274 1.17358 10.4422 0.999512H15.4694L15.4699 1.00001ZM11.2024 4.52642C11.2024 5.20193 11.233 5.84728 11.1955 6.48818C11.1324 7.5776 11.0781 8.67197 10.9276 9.75151C10.5902 12.1761 9.76135 14.4529 8.73271 16.6624C8.07952 18.0664 7.40511 19.4614 6.79878 20.8856C5.81405 23.1985 5.99363 25.4411 7.38586 27.5463C7.86294 28.2678 8.42684 28.9314 8.94485 29.6262C9.06227 29.7835 9.20041 29.828 9.39134 29.8275C11.4461 29.8211 13.5014 29.8235 15.5562 29.8235H15.8789C15.8789 29.4121 15.8656 29.0412 15.8843 28.6723C15.8947 28.4676 15.8143 28.3603 15.651 28.2534C14.4635 27.4775 13.5962 26.4485 13.167 25.0727C12.9208 24.2834 12.9558 23.4729 12.9563 22.6644C12.9568 21.4316 13.6618 20.7209 14.8937 20.718C16.1695 20.715 17.4453 20.718 18.7211 20.7165C18.8222 20.7165 18.9234 20.7076 19.0477 20.7016C18.9959 20.5711 18.9648 20.4796 18.9239 20.3926C18.3274 19.1123 17.7295 17.8329 17.1325 16.5531C16.1147 14.3703 15.3402 12.1114 14.9677 9.72233C14.7205 8.13443 14.6914 6.53615 14.7092 4.9344C14.7106 4.80137 14.7092 4.66835 14.7092 4.52642H11.2009H11.2024ZM25.7706 24.2325H25.408C24.5609 24.2325 23.7138 24.2325 22.8667 24.2325C22.7789 24.2325 22.6911 24.2355 22.6038 24.2286C22.2574 24.1999 22.0251 23.9694 22.0201 23.6544C22.0152 23.328 22.2535 23.0734 22.6166 23.0684C23.5609 23.0561 24.5056 23.0625 25.4499 23.061C25.5644 23.061 25.6788 23.061 25.8135 23.061C25.8135 22.8236 25.8288 22.6189 25.8101 22.4176C25.777 22.0636 25.5284 21.89 25.0676 21.89C21.6694 21.889 18.2712 21.8895 14.873 21.89C14.795 21.89 14.7171 21.8929 14.6401 21.9023C14.3505 21.9394 14.1783 22.117 14.1389 22.3934C14.1093 22.6011 14.1329 22.8167 14.1329 23.0605C14.2597 23.0605 14.3648 23.0605 14.4699 23.0605C15.2198 23.0605 15.9692 23.059 16.7191 23.0615C16.9623 23.062 17.2075 23.0551 17.4478 23.0828C17.723 23.1144 17.9155 23.3547 17.9233 23.6292C17.9312 23.9022 17.7497 24.147 17.4803 24.2053C17.3673 24.2295 17.2484 24.2315 17.132 24.232C16.2558 24.234 15.3796 24.2325 14.5029 24.234C14.4008 24.234 14.2982 24.2424 14.1857 24.2473C14.1961 24.3309 14.1976 24.3794 14.2084 24.4264C14.5039 25.7215 15.2933 26.6492 16.39 27.3386C16.5282 27.4251 16.7137 27.4746 16.8774 27.4751C18.7566 27.4845 20.6368 27.4474 22.5145 27.4983C23.2185 27.5176 23.7483 27.2886 24.2456 26.8441C25.0237 26.1488 25.5742 25.3269 25.7701 24.233L25.7706 24.2325ZM22.8825 28.6733H17.0639V29.8072H22.8825V28.6733ZM14.6978 2.19279H11.2172V3.32771H14.6978V2.19279Z" fill="#535353"/>
<path d="M20.5544 23.6366C20.5593 23.954 20.3067 24.2176 19.989 24.2265C19.6609 24.2359 19.3861 23.9674 19.3891 23.6405C19.392 23.322 19.6486 23.0698 19.9702 23.0689C20.2929 23.0679 20.5494 23.3171 20.5544 23.6366Z" fill="#535353"/>
</g>
<g clip-path="url(#clip1_1174_34383)">
<path d="M15.4699 33C15.7891 33.1706 15.8912 33.4347 15.8863 33.7952C15.87 35.0735 15.906 36.3528 15.875 37.6312C15.7886 41.2011 16.5632 44.5777 18.0733 47.799C18.7596 49.2628 19.4399 50.7295 20.1094 52.2017C20.3398 52.7086 20.3205 52.7175 20.8642 52.7175C22.2377 52.7175 23.6117 52.7506 24.9837 52.7081C26.3207 52.6665 27.0587 53.6442 26.9961 54.7153C26.9502 55.5021 27.0193 56.2953 26.78 57.0653C26.3527 58.441 25.4869 59.4731 24.3004 60.25C24.1238 60.3657 24.0483 60.4814 24.0592 60.6936C24.0774 61.0442 24.0661 61.3963 24.0636 61.7474C24.0582 62.5045 23.5747 62.9931 22.8199 62.9941C20.6871 62.9965 18.5538 62.9951 16.4211 62.9951C13.9667 62.9951 11.5123 62.9911 9.05783 63C8.73765 63.001 8.50873 62.8942 8.29659 62.6568C7.39771 61.65 6.57776 60.5897 5.94232 59.392C4.77801 57.1988 4.71388 54.9408 5.63398 52.67C6.2334 51.1914 6.93396 49.7528 7.61034 48.3064C8.60099 46.1878 9.42735 44.0139 9.7579 41.6867C9.90689 40.6369 9.99224 39.5722 10.0218 38.5114C10.0657 36.9413 10.0421 35.3688 10.0278 33.7972C10.0243 33.4372 10.1274 33.1736 10.4422 32.9995H15.4694L15.4699 33ZM11.2024 36.5264C11.2024 37.2019 11.233 37.8473 11.1955 38.4882C11.1324 39.5776 11.0781 40.672 10.9276 41.7515C10.5902 44.1761 9.76135 46.4529 8.73271 48.6624C8.07952 50.0664 7.40511 51.4614 6.79878 52.8856C5.81405 55.1985 5.99363 57.4411 7.38586 59.5463C7.86294 60.2678 8.42684 60.9314 8.94485 61.6262C9.06227 61.7835 9.20041 61.828 9.39134 61.8275C11.4461 61.8211 13.5014 61.8235 15.5562 61.8235H15.8789C15.8789 61.4121 15.8656 61.0412 15.8843 60.6723C15.8947 60.4676 15.8143 60.3603 15.651 60.2534C14.4635 59.4775 13.5962 58.4485 13.167 57.0727C12.9208 56.2834 12.9558 55.4729 12.9563 54.6644C12.9568 53.4316 13.6618 52.7209 14.8937 52.718C16.1695 52.715 17.4453 52.718 18.7211 52.7165C18.8222 52.7165 18.9234 52.7076 19.0477 52.7016C18.9959 52.5711 18.9648 52.4796 18.9239 52.3926C18.3274 51.1123 17.7295 49.8329 17.1325 48.5531C16.1147 46.3703 15.3402 44.1114 14.9677 41.7223C14.7205 40.1344 14.6914 38.5361 14.7092 36.9344C14.7106 36.8014 14.7092 36.6683 14.7092 36.5264H11.2009H11.2024ZM25.7706 56.2325H25.408C24.5609 56.2325 23.7138 56.2325 22.8667 56.2325C22.7789 56.2325 22.6911 56.2355 22.6038 56.2286C22.2574 56.1999 22.0251 55.9694 22.0201 55.6544C22.0152 55.328 22.2535 55.0734 22.6166 55.0684C23.5609 55.0561 24.5056 55.0625 25.4499 55.061C25.5644 55.061 25.6788 55.061 25.8135 55.061C25.8135 54.8236 25.8288 54.6189 25.8101 54.4176C25.777 54.0636 25.5284 53.89 25.0676 53.89C21.6694 53.889 18.2712 53.8895 14.873 53.89C14.795 53.89 14.7171 53.8929 14.6401 53.9023C14.3505 53.9394 14.1783 54.117 14.1389 54.3934C14.1093 54.6011 14.1329 54.8167 14.1329 55.0605C14.2597 55.0605 14.3648 55.0605 14.4699 55.0605C15.2198 55.0605 15.9692 55.059 16.7191 55.0615C16.9623 55.062 17.2075 55.0551 17.4478 55.0828C17.723 55.1144 17.9155 55.3547 17.9233 55.6292C17.9312 55.9022 17.7497 56.147 17.4803 56.2053C17.3673 56.2295 17.2484 56.2315 17.132 56.232C16.2558 56.234 15.3796 56.2325 14.5029 56.234C14.4008 56.234 14.2982 56.2424 14.1857 56.2473C14.1961 56.3309 14.1976 56.3794 14.2084 56.4264C14.5039 57.7215 15.2933 58.6492 16.39 59.3386C16.5282 59.4251 16.7137 59.4746 16.8774 59.4751C18.7566 59.4845 20.6368 59.4474 22.5145 59.4983C23.2185 59.5176 23.7483 59.2886 24.2456 58.8441C25.0237 58.1488 25.5742 57.3269 25.7701 56.233L25.7706 56.2325ZM22.8825 60.6733H17.0639V61.8072H22.8825V60.6733ZM14.6978 34.1928H11.2172V35.3277H14.6978V34.1928Z" fill="#B7ABA5"/>
<path d="M20.5544 55.6366C20.5593 55.954 20.3067 56.2176 19.989 56.2265C19.6609 56.2359 19.3861 55.9674 19.3891 55.6405C19.392 55.322 19.6486 55.0698 19.9702 55.0689C20.2929 55.0679 20.5494 55.3171 20.5544 55.6366Z" fill="#B7ABA5"/>
</g>
<g clip-path="url(#clip2_1174_34383)">
<path d="M15.4699 65C15.7891 65.1706 15.8912 65.4347 15.8863 65.7952C15.87 67.0735 15.906 68.3528 15.875 69.6312C15.7886 73.2011 16.5632 76.5777 18.0733 79.799C18.7596 81.2628 19.4399 82.7295 20.1094 84.2017C20.3398 84.7086 20.3205 84.7175 20.8642 84.7175C22.2377 84.7175 23.6117 84.7506 24.9837 84.7081C26.3207 84.6665 27.0587 85.6442 26.9961 86.7153C26.9502 87.5021 27.0193 88.2953 26.78 89.0653C26.3527 90.441 25.4869 91.4731 24.3004 92.25C24.1238 92.3657 24.0483 92.4814 24.0592 92.6936C24.0774 93.0442 24.0661 93.3963 24.0636 93.7474C24.0582 94.5045 23.5747 94.9931 22.8199 94.9941C20.6871 94.9965 18.5538 94.9951 16.4211 94.9951C13.9667 94.9951 11.5123 94.9911 9.05783 95C8.73765 95.001 8.50873 94.8942 8.29659 94.6568C7.39771 93.65 6.57776 92.5897 5.94232 91.392C4.77801 89.1988 4.71388 86.9408 5.63398 84.67C6.2334 83.1914 6.93396 81.7528 7.61034 80.3064C8.60099 78.1878 9.42735 76.0139 9.7579 73.6867C9.90689 72.6369 9.99224 71.5722 10.0218 70.5114C10.0657 68.9413 10.0421 67.3688 10.0278 65.7972C10.0243 65.4372 10.1274 65.1736 10.4422 64.9995H15.4694L15.4699 65ZM11.2024 68.5264C11.2024 69.2019 11.233 69.8473 11.1955 70.4882C11.1324 71.5776 11.0781 72.672 10.9276 73.7515C10.5902 76.1761 9.76135 78.4529 8.73271 80.6624C8.07952 82.0664 7.40511 83.4614 6.79878 84.8856C5.81405 87.1985 5.99363 89.4411 7.38586 91.5463C7.86294 92.2678 8.42684 92.9314 8.94485 93.6262C9.06227 93.7835 9.20041 93.828 9.39134 93.8275C11.4461 93.8211 13.5014 93.8235 15.5562 93.8235H15.8789C15.8789 93.4121 15.8656 93.0412 15.8843 92.6723C15.8947 92.4676 15.8143 92.3603 15.651 92.2534C14.4635 91.4775 13.5962 90.4485 13.167 89.0727C12.9208 88.2834 12.9558 87.4729 12.9563 86.6644C12.9568 85.4316 13.6618 84.7209 14.8937 84.718C16.1695 84.715 17.4453 84.718 18.7211 84.7165C18.8222 84.7165 18.9234 84.7076 19.0477 84.7016C18.9959 84.5711 18.9648 84.4796 18.9239 84.3926C18.3274 83.1123 17.7295 81.8329 17.1325 80.5531C16.1147 78.3703 15.3402 76.1114 14.9677 73.7223C14.7205 72.1344 14.6914 70.5361 14.7092 68.9344C14.7106 68.8014 14.7092 68.6683 14.7092 68.5264H11.2009H11.2024ZM25.7706 88.2325H25.408C24.5609 88.2325 23.7138 88.2325 22.8667 88.2325C22.7789 88.2325 22.6911 88.2355 22.6038 88.2286C22.2574 88.1999 22.0251 87.9694 22.0201 87.6544C22.0152 87.328 22.2535 87.0734 22.6166 87.0684C23.5609 87.0561 24.5056 87.0625 25.4499 87.061C25.5644 87.061 25.6788 87.061 25.8135 87.061C25.8135 86.8236 25.8288 86.6189 25.8101 86.4176C25.777 86.0636 25.5284 85.89 25.0676 85.89C21.6694 85.889 18.2712 85.8895 14.873 85.89C14.795 85.89 14.7171 85.8929 14.6401 85.9023C14.3505 85.9394 14.1783 86.117 14.1389 86.3934C14.1093 86.6011 14.1329 86.8167 14.1329 87.0605C14.2597 87.0605 14.3648 87.0605 14.4699 87.0605C15.2198 87.0605 15.9692 87.059 16.7191 87.0615C16.9623 87.062 17.2075 87.0551 17.4478 87.0828C17.723 87.1144 17.9155 87.3547 17.9233 87.6292C17.9312 87.9022 17.7497 88.147 17.4803 88.2053C17.3673 88.2295 17.2484 88.2315 17.132 88.232C16.2558 88.234 15.3796 88.2325 14.5029 88.234C14.4008 88.234 14.2982 88.2424 14.1857 88.2473C14.1961 88.3309 14.1976 88.3794 14.2084 88.4264C14.5039 89.7215 15.2933 90.6492 16.39 91.3386C16.5282 91.4251 16.7137 91.4746 16.8774 91.4751C18.7566 91.4845 20.6368 91.4474 22.5145 91.4983C23.2185 91.5176 23.7483 91.2886 24.2456 90.8441C25.0237 90.1488 25.5742 89.3269 25.7701 88.233L25.7706 88.2325ZM22.8825 92.6733H17.0639V93.8072H22.8825V92.6733ZM14.6978 66.1928H11.2172V67.3277H14.6978V66.1928Z" fill="white"/>
<path d="M20.5544 87.6366C20.5593 87.954 20.3067 88.2176 19.989 88.2265C19.6609 88.2359 19.3861 87.9674 19.3891 87.6405C19.392 87.322 19.6486 87.0698 19.9702 87.0689C20.2929 87.0679 20.5494 87.3171 20.5544 87.6366Z" fill="white"/>
</g>
<defs>
<clipPath id="clip0_1174_34383">
<rect width="22" height="30" fill="white" transform="translate(5 1)"/>
</clipPath>
<clipPath id="clip1_1174_34383">
<rect width="22" height="30" fill="white" transform="translate(5 33)"/>
</clipPath>
<clipPath id="clip2_1174_34383">
<rect width="22" height="30" fill="white" transform="translate(5 65)"/>
</clipPath>
</defs>
</svg>
