<svg width="32" height="96" viewBox="0 0 32 96" fill="none" xmlns="http://www.w3.org/2000/svg">
<g clip-path="url(#clip0_1174_34381)">
<path d="M26.5405 5.99566C26.2643 5.63613 25.8583 5.50567 25.4245 5.50175C25.1022 5.49913 24.7799 5.50131 24.4572 5.50131C18.5256 5.50087 12.5939 5.50175 6.66231 5.5C5.95091 5.5 5.40286 5.79408 5.12485 6.51357C5.02746 6.76532 4.98717 7.06769 5.00355 7.34126C5.12662 9.37625 5.27182 11.4099 5.40728 13.444C5.52902 15.2718 5.64457 17.1 5.76719 18.9277C5.87698 20.5639 5.97482 22.2018 6.11072 23.8354C6.22715 25.2351 7.44632 26.4346 8.75448 26.49C8.86161 26.4943 8.96918 26.4983 9.07675 26.4983C13.6905 26.4983 18.3038 26.4969 22.9175 26.4996C24.1145 26.5004 25.0057 25.9494 25.5896 24.8333C25.7999 24.4314 25.888 23.9899 25.9181 23.5348C26.0819 21.0569 26.2426 18.5786 26.4059 16.1008C26.5901 13.3092 26.7764 10.5181 26.9633 7.72697C26.9677 7.65934 26.9876 7.59302 27.0005 7.52626V6.88182C26.8504 6.58381 26.7379 6.25221 26.5409 5.99566H26.5405ZM6.8177 15.2238H8.2383V15.2111H9.10376C8.8709 15.4149 8.64247 15.6243 8.40431 15.8373C8.39988 15.8325 8.3959 15.8281 8.39147 15.8233L7.39231 16.7182C7.39674 16.723 7.40072 16.7273 7.40515 16.7321C7.25198 16.8696 7.09837 17.0062 6.94564 17.1432C6.90314 16.5044 6.86064 15.8647 6.81814 15.2234L6.8177 15.2238ZM16.684 12.5073C16.6494 12.6988 16.6114 12.8904 16.572 13.0841L16.4254 13.8167C15.0159 13.8154 13.6055 13.814 12.1964 13.814L12.5005 12.2935L12.5041 12.2943C12.543 12.0915 12.5838 11.8894 12.6325 11.69C12.6758 11.5116 12.8233 11.4361 13.0096 11.4719C14.1504 11.6918 15.2908 11.9121 16.4303 12.1377C16.6255 12.1765 16.7185 12.3122 16.6835 12.5073H16.684ZM12.4434 19.5115L10.5726 21.1874V21.1865C10.4748 21.2733 10.3769 21.3593 10.2773 21.4422H9.87448C9.8404 21.4156 9.80543 21.3829 9.76912 21.344C9.10553 20.6258 8.44282 19.9068 7.78011 19.1877C7.68626 19.0856 7.5902 18.9857 7.499 18.8814C7.36265 18.7252 7.35646 18.5581 7.50609 18.415C7.59639 18.3291 7.68847 18.2449 7.78188 18.1606L9.6527 16.4843L9.65535 16.4869C9.80941 16.3469 9.96391 16.2086 10.1237 16.0772C10.2667 15.9594 10.4305 15.9852 10.5584 16.1235C11.3416 16.9704 12.1238 17.8173 12.9025 18.6677C13.0357 18.8134 13.0287 18.977 12.8821 19.1131C12.7387 19.2466 12.5922 19.378 12.4434 19.5102V19.5115ZM12.2216 15.4834C12.0561 15.4463 11.9547 15.3534 11.941 15.2107H16.1474L16.0837 15.5288H16.0828C16.0562 15.661 16.0283 15.7927 15.9974 15.9232C15.9504 16.1196 15.7973 16.1776 15.5339 16.127C14.5666 15.9402 13.5997 15.7522 12.6329 15.5641C12.4957 15.5375 12.358 15.5135 12.2216 15.483V15.4834ZM7.16654 20.4701C7.46403 20.7951 7.7624 21.1189 8.06211 21.4422H7.23117C7.20948 21.118 7.18823 20.7938 7.16654 20.4701ZM24.1876 24.5815C23.9012 24.8961 23.5599 25.082 23.1473 25.1081C23.0614 25.1134 22.9755 25.116 22.8896 25.116C18.2923 25.116 13.6954 25.1134 9.098 25.1195C8.43352 25.1204 7.90274 24.8743 7.58046 24.2429C7.46093 24.0086 7.4171 23.725 7.36575 23.458C7.33034 23.2726 7.34096 23.0766 7.32945 22.8629H24.6542C24.6382 23.4846 24.6272 24.0981 24.1871 24.5815H24.1876ZM24.7587 21.4426H12.2787L12.98 20.8148C12.9769 20.8113 12.9738 20.8082 12.9711 20.8052C13.2327 20.5709 13.486 20.3431 13.7401 20.1167C14.0216 19.8662 14.216 19.5652 14.2863 19.1952C14.3886 18.6594 14.2452 18.1855 13.8795 17.7845C13.6422 17.5241 13.4041 17.264 13.1659 17.004C13.8884 17.1462 14.6117 17.2858 15.336 17.4202C16.3179 17.6022 17.1218 17.0563 17.3232 16.0886C17.383 15.8028 17.4388 15.5153 17.499 15.2116H17.595C17.576 15.3163 17.5649 15.4254 17.5632 15.5384C17.5578 15.87 17.5623 16.202 17.5623 16.5445H17.5432V17.8753H17.5623C17.5623 18.1999 17.5601 18.5232 17.5627 18.847C17.5658 19.2405 17.6552 19.6075 17.9071 19.9251C18.2489 20.3558 18.7057 20.5569 19.2502 20.5595C20.3915 20.5656 21.5332 20.5691 22.6745 20.5595C23.6736 20.5508 24.3549 19.8623 24.3633 18.8745C24.366 18.5485 24.3633 18.2226 24.3633 17.8722H24.3766V16.5554H24.3633C24.3633 16.2068 24.3625 15.8691 24.3633 15.5314C24.3633 15.4223 24.3554 15.3154 24.3385 15.2116H25.1708C25.0327 17.2959 24.8959 19.3627 24.7578 21.4435L24.7587 21.4426ZM23.0344 15.4821C23.0379 15.6767 23.0384 15.8717 23.0375 16.0694V18.5612H23.0366C23.0366 18.696 23.0348 18.8304 23.0299 18.9648C23.0224 19.1664 22.8834 19.2523 22.6151 19.2528C21.6297 19.2541 20.6438 19.2532 19.6584 19.2532C19.5185 19.2532 19.3786 19.2558 19.2392 19.2519C19.0302 19.2462 18.9005 19.1384 18.8939 18.9329C18.8899 18.8095 18.8886 18.6855 18.8886 18.5608H18.8881V16.0689H18.8917C18.8903 15.8621 18.8903 15.6566 18.8992 15.4515C18.9041 15.339 18.955 15.257 19.0373 15.2103H22.8932C22.9817 15.2609 23.0317 15.3538 23.0339 15.4817L23.0344 15.4821ZM25.7025 7.30112C25.5604 9.44257 25.4169 11.5836 25.274 13.725C25.2726 13.7473 25.2655 13.7695 25.2554 13.8184H23.261C21.4451 13.8206 19.6195 13.8193 17.7907 13.818V13.8154C17.7867 13.8145 17.7823 13.8136 17.7779 13.8127C17.846 13.4707 17.9115 13.1391 17.9788 12.8079C18.0532 12.4414 18.0271 12.0858 17.8602 11.7468C17.618 11.2563 17.2165 10.9601 16.6804 10.8532C15.5476 10.6267 14.4138 10.4038 13.2779 10.1926C12.3164 10.0141 11.5124 10.5609 11.3053 11.5194C11.2349 11.8441 11.1742 12.1704 11.1069 12.5064C11.1007 12.5051 11.0945 12.5038 11.0883 12.5029L10.8276 13.8088C10.8338 13.8101 10.84 13.8114 10.8462 13.8123C10.8462 13.8132 10.8462 13.8136 10.8458 13.8145C10.1414 13.8145 9.43755 13.8158 8.73455 13.8171H6.72695C6.69463 13.369 6.66143 12.9279 6.63177 12.4868C6.51667 10.7664 6.40246 9.04552 6.28824 7.32468C6.26434 6.96821 6.33649 6.88269 6.66718 6.88269C12.8852 6.88269 19.1033 6.88269 25.3218 6.88269C25.6476 6.88269 25.7251 6.96647 25.7025 7.30112Z" fill="#535353"/>
</g>
<g clip-path="url(#clip1_1174_34381)">
<path d="M26.5405 37.9957C26.2643 37.6361 25.8583 37.5057 25.4245 37.5017C25.1022 37.4991 24.7799 37.5013 24.4572 37.5013C18.5256 37.5009 12.5939 37.5017 6.66231 37.5C5.95091 37.5 5.40286 37.7941 5.12485 38.5136C5.02746 38.7653 4.98717 39.0677 5.00355 39.3413C5.12662 41.3763 5.27182 43.4099 5.40728 45.444C5.52902 47.2718 5.64457 49.1 5.76719 50.9277C5.87698 52.5639 5.97482 54.2018 6.11072 55.8354C6.22715 57.2351 7.44632 58.4346 8.75448 58.49C8.86161 58.4943 8.96918 58.4983 9.07675 58.4983C13.6905 58.4983 18.3038 58.4969 22.9175 58.4996C24.1145 58.5004 25.0057 57.9494 25.5896 56.8333C25.7999 56.4314 25.888 55.9899 25.9181 55.5348C26.0819 53.0569 26.2426 50.5786 26.4059 48.1008C26.5901 45.3092 26.7764 42.5181 26.9633 39.727C26.9677 39.6593 26.9876 39.593 27.0005 39.5263V38.8818C26.8504 38.5838 26.7379 38.2522 26.5409 37.9957H26.5405ZM6.8177 47.2238H8.2383V47.2111H9.10376C8.8709 47.4149 8.64247 47.6243 8.40431 47.8373C8.39988 47.8325 8.3959 47.8281 8.39147 47.8233L7.39231 48.7182C7.39674 48.723 7.40072 48.7273 7.40515 48.7321C7.25198 48.8696 7.09837 49.0062 6.94564 49.1432C6.90314 48.5044 6.86064 47.8647 6.81814 47.2234L6.8177 47.2238ZM16.684 44.5073C16.6494 44.6988 16.6114 44.8904 16.572 45.0841L16.4254 45.8167C15.0159 45.8154 13.6055 45.814 12.1964 45.814L12.5005 44.2935L12.5041 44.2943C12.543 44.0915 12.5838 43.8894 12.6325 43.69C12.6758 43.5116 12.8233 43.4361 13.0096 43.4719C14.1504 43.6918 15.2908 43.9121 16.4303 44.1377C16.6255 44.1765 16.7185 44.3122 16.6835 44.5073H16.684ZM12.4434 51.5115L10.5726 53.1874V53.1865C10.4748 53.2733 10.3769 53.3593 10.2773 53.4422H9.87448C9.8404 53.4156 9.80543 53.3829 9.76912 53.344C9.10553 52.6258 8.44282 51.9068 7.78011 51.1877C7.68626 51.0856 7.5902 50.9857 7.499 50.8814C7.36265 50.7252 7.35646 50.5581 7.50609 50.415C7.59639 50.3291 7.68847 50.2449 7.78188 50.1606L9.6527 48.4843L9.65535 48.4869C9.80941 48.3469 9.96391 48.2086 10.1237 48.0772C10.2667 47.9594 10.4305 47.9852 10.5584 48.1235C11.3416 48.9704 12.1238 49.8173 12.9025 50.6677C13.0357 50.8134 13.0287 50.977 12.8821 51.1131C12.7387 51.2466 12.5922 51.378 12.4434 51.5102V51.5115ZM12.2216 47.4834C12.0561 47.4463 11.9547 47.3534 11.941 47.2107H16.1474L16.0837 47.5288H16.0828C16.0562 47.661 16.0283 47.7927 15.9974 47.9232C15.9504 48.1196 15.7973 48.1776 15.5339 48.127C14.5666 47.9402 13.5997 47.7522 12.6329 47.5641C12.4957 47.5375 12.358 47.5135 12.2216 47.483V47.4834ZM7.16654 52.4701C7.46403 52.7951 7.7624 53.1189 8.06211 53.4422H7.23117C7.20948 53.118 7.18823 52.7938 7.16654 52.4701ZM24.1876 56.5815C23.9012 56.8961 23.5599 57.082 23.1473 57.1081C23.0614 57.1134 22.9755 57.116 22.8896 57.116C18.2923 57.116 13.6954 57.1134 9.098 57.1195C8.43352 57.1204 7.90274 56.8743 7.58046 56.2429C7.46093 56.0086 7.4171 55.725 7.36575 55.458C7.33034 55.2726 7.34096 55.0766 7.32945 54.8629H24.6542C24.6382 55.4846 24.6272 56.0981 24.1871 56.5815H24.1876ZM24.7587 53.4426H12.2787L12.98 52.8148C12.9769 52.8113 12.9738 52.8082 12.9711 52.8052C13.2327 52.5709 13.486 52.3431 13.7401 52.1167C14.0216 51.8662 14.216 51.5652 14.2863 51.1952C14.3886 50.6594 14.2452 50.1855 13.8795 49.7845C13.6422 49.5241 13.4041 49.264 13.1659 49.004C13.8884 49.1462 14.6117 49.2858 15.336 49.4202C16.3179 49.6022 17.1218 49.0563 17.3232 48.0886C17.383 47.8028 17.4388 47.5153 17.499 47.2116H17.595C17.576 47.3163 17.5649 47.4254 17.5632 47.5384C17.5578 47.87 17.5623 48.202 17.5623 48.5445H17.5432V49.8753H17.5623C17.5623 50.1999 17.5601 50.5232 17.5627 50.847C17.5658 51.2405 17.6552 51.6075 17.9071 51.9251C18.2489 52.3558 18.7057 52.5569 19.2502 52.5595C20.3915 52.5656 21.5332 52.5691 22.6745 52.5595C23.6736 52.5508 24.3549 51.8623 24.3633 50.8745C24.366 50.5485 24.3633 50.2226 24.3633 49.8722H24.3766V48.5554H24.3633C24.3633 48.2068 24.3625 47.8691 24.3633 47.5314C24.3633 47.4223 24.3554 47.3154 24.3385 47.2116H25.1708C25.0327 49.2959 24.8959 51.3627 24.7578 53.4435L24.7587 53.4426ZM23.0344 47.4821C23.0379 47.6767 23.0384 47.8717 23.0375 48.0694V50.5612H23.0366C23.0366 50.696 23.0348 50.8304 23.0299 50.9648C23.0224 51.1664 22.8834 51.2523 22.6151 51.2528C21.6297 51.2541 20.6438 51.2532 19.6584 51.2532C19.5185 51.2532 19.3786 51.2558 19.2392 51.2519C19.0302 51.2462 18.9005 51.1384 18.8939 50.9329C18.8899 50.8095 18.8886 50.6855 18.8886 50.5608H18.8881V48.0689H18.8917C18.8903 47.8621 18.8903 47.6566 18.8992 47.4515C18.9041 47.339 18.955 47.257 19.0373 47.2103H22.8932C22.9817 47.2609 23.0317 47.3538 23.0339 47.4817L23.0344 47.4821ZM25.7025 39.3011C25.5604 41.4426 25.4169 43.5836 25.274 45.725C25.2726 45.7473 25.2655 45.7695 25.2554 45.8184H23.261C21.4451 45.8206 19.6195 45.8193 17.7907 45.818V45.8154C17.7867 45.8145 17.7823 45.8136 17.7779 45.8127C17.846 45.4707 17.9115 45.1391 17.9788 44.8079C18.0532 44.4414 18.0271 44.0858 17.8602 43.7468C17.618 43.2563 17.2165 42.9601 16.6804 42.8532C15.5476 42.6267 14.4138 42.4038 13.2779 42.1926C12.3164 42.0141 11.5124 42.5609 11.3053 43.5194C11.2349 43.8441 11.1742 44.1704 11.1069 44.5064C11.1007 44.5051 11.0945 44.5038 11.0883 44.5029L10.8276 45.8088C10.8338 45.8101 10.84 45.8114 10.8462 45.8123C10.8462 45.8132 10.8462 45.8136 10.8458 45.8145C10.1414 45.8145 9.43755 45.8158 8.73455 45.8171H6.72695C6.69463 45.369 6.66143 44.9279 6.63177 44.4868C6.51667 42.7664 6.40246 41.0455 6.28824 39.3247C6.26434 38.9682 6.33649 38.8827 6.66718 38.8827C12.8852 38.8827 19.1033 38.8827 25.3218 38.8827C25.6476 38.8827 25.7251 38.9665 25.7025 39.3011Z" fill="#B7ABA5"/>
</g>
<g clip-path="url(#clip2_1174_34381)">
<path d="M26.5405 69.9957C26.2643 69.6361 25.8583 69.5057 25.4245 69.5017C25.1022 69.4991 24.7799 69.5013 24.4572 69.5013C18.5256 69.5009 12.5939 69.5017 6.66231 69.5C5.95091 69.5 5.40286 69.7941 5.12485 70.5136C5.02746 70.7653 4.98717 71.0677 5.00355 71.3413C5.12662 73.3763 5.27182 75.4099 5.40728 77.444C5.52902 79.2718 5.64457 81.1 5.76719 82.9277C5.87698 84.5639 5.97482 86.2018 6.11072 87.8354C6.22715 89.2351 7.44632 90.4346 8.75448 90.49C8.86161 90.4943 8.96918 90.4983 9.07675 90.4983C13.6905 90.4983 18.3038 90.4969 22.9175 90.4996C24.1145 90.5004 25.0057 89.9494 25.5896 88.8333C25.7999 88.4314 25.888 87.9899 25.9181 87.5348C26.0819 85.0569 26.2426 82.5786 26.4059 80.1008C26.5901 77.3092 26.7764 74.5181 26.9633 71.727C26.9677 71.6593 26.9876 71.593 27.0005 71.5263V70.8818C26.8504 70.5838 26.7379 70.2522 26.5409 69.9957H26.5405ZM6.8177 79.2238H8.2383V79.2111H9.10376C8.8709 79.4149 8.64247 79.6243 8.40431 79.8373C8.39988 79.8325 8.3959 79.8281 8.39147 79.8233L7.39231 80.7182C7.39674 80.723 7.40072 80.7273 7.40515 80.7321C7.25198 80.8696 7.09837 81.0062 6.94564 81.1432C6.90314 80.5044 6.86064 79.8647 6.81814 79.2234L6.8177 79.2238ZM16.684 76.5073C16.6494 76.6988 16.6114 76.8904 16.572 77.0841L16.4254 77.8167C15.0159 77.8154 13.6055 77.814 12.1964 77.814L12.5005 76.2935L12.5041 76.2943C12.543 76.0915 12.5838 75.8894 12.6325 75.69C12.6758 75.5116 12.8233 75.4361 13.0096 75.4719C14.1504 75.6918 15.2908 75.9121 16.4303 76.1377C16.6255 76.1765 16.7185 76.3122 16.6835 76.5073H16.684ZM12.4434 83.5115L10.5726 85.1874V85.1865C10.4748 85.2733 10.3769 85.3593 10.2773 85.4422H9.87448C9.8404 85.4156 9.80543 85.3829 9.76912 85.344C9.10553 84.6258 8.44282 83.9068 7.78011 83.1877C7.68626 83.0856 7.5902 82.9857 7.499 82.8814C7.36265 82.7252 7.35646 82.5581 7.50609 82.415C7.59639 82.3291 7.68847 82.2449 7.78188 82.1606L9.6527 80.4843L9.65535 80.4869C9.80941 80.3469 9.96391 80.2086 10.1237 80.0772C10.2667 79.9594 10.4305 79.9852 10.5584 80.1235C11.3416 80.9704 12.1238 81.8173 12.9025 82.6677C13.0357 82.8134 13.0287 82.977 12.8821 83.1131C12.7387 83.2466 12.5922 83.378 12.4434 83.5102V83.5115ZM12.2216 79.4834C12.0561 79.4463 11.9547 79.3534 11.941 79.2107H16.1474L16.0837 79.5288H16.0828C16.0562 79.661 16.0283 79.7927 15.9974 79.9232C15.9504 80.1196 15.7973 80.1776 15.5339 80.127C14.5666 79.9402 13.5997 79.7522 12.6329 79.5641C12.4957 79.5375 12.358 79.5135 12.2216 79.483V79.4834ZM7.16654 84.4701C7.46403 84.7951 7.7624 85.1189 8.06211 85.4422H7.23117C7.20948 85.118 7.18823 84.7938 7.16654 84.4701ZM24.1876 88.5815C23.9012 88.8961 23.5599 89.082 23.1473 89.1081C23.0614 89.1134 22.9755 89.116 22.8896 89.116C18.2923 89.116 13.6954 89.1134 9.098 89.1195C8.43352 89.1204 7.90274 88.8743 7.58046 88.2429C7.46093 88.0086 7.4171 87.725 7.36575 87.458C7.33034 87.2726 7.34096 87.0766 7.32945 86.8629H24.6542C24.6382 87.4846 24.6272 88.0981 24.1871 88.5815H24.1876ZM24.7587 85.4426H12.2787L12.98 84.8148C12.9769 84.8113 12.9738 84.8082 12.9711 84.8052C13.2327 84.5709 13.486 84.3431 13.7401 84.1167C14.0216 83.8662 14.216 83.5652 14.2863 83.1952C14.3886 82.6594 14.2452 82.1855 13.8795 81.7845C13.6422 81.5241 13.4041 81.264 13.1659 81.004C13.8884 81.1462 14.6117 81.2858 15.336 81.4202C16.3179 81.6022 17.1218 81.0563 17.3232 80.0886C17.383 79.8028 17.4388 79.5153 17.499 79.2116H17.595C17.576 79.3163 17.5649 79.4254 17.5632 79.5384C17.5578 79.87 17.5623 80.202 17.5623 80.5445H17.5432V81.8753H17.5623C17.5623 82.1999 17.5601 82.5232 17.5627 82.847C17.5658 83.2405 17.6552 83.6075 17.9071 83.9251C18.2489 84.3558 18.7057 84.5569 19.2502 84.5595C20.3915 84.5656 21.5332 84.5691 22.6745 84.5595C23.6736 84.5508 24.3549 83.8623 24.3633 82.8745C24.366 82.5485 24.3633 82.2226 24.3633 81.8722H24.3766V80.5554H24.3633C24.3633 80.2068 24.3625 79.8691 24.3633 79.5314C24.3633 79.4223 24.3554 79.3154 24.3385 79.2116H25.1708C25.0327 81.2959 24.8959 83.3627 24.7578 85.4435L24.7587 85.4426ZM23.0344 79.4821C23.0379 79.6767 23.0384 79.8717 23.0375 80.0694V82.5612H23.0366C23.0366 82.696 23.0348 82.8304 23.0299 82.9648C23.0224 83.1664 22.8834 83.2523 22.6151 83.2528C21.6297 83.2541 20.6438 83.2532 19.6584 83.2532C19.5185 83.2532 19.3786 83.2558 19.2392 83.2519C19.0302 83.2462 18.9005 83.1384 18.8939 82.9329C18.8899 82.8095 18.8886 82.6855 18.8886 82.5608H18.8881V80.0689H18.8917C18.8903 79.8621 18.8903 79.6566 18.8992 79.4515C18.9041 79.339 18.955 79.257 19.0373 79.2103H22.8932C22.9817 79.2609 23.0317 79.3538 23.0339 79.4817L23.0344 79.4821ZM25.7025 71.3011C25.5604 73.4426 25.4169 75.5836 25.274 77.725C25.2726 77.7473 25.2655 77.7695 25.2554 77.8184H23.261C21.4451 77.8206 19.6195 77.8193 17.7907 77.818V77.8154C17.7867 77.8145 17.7823 77.8136 17.7779 77.8127C17.846 77.4707 17.9115 77.1391 17.9788 76.8079C18.0532 76.4414 18.0271 76.0858 17.8602 75.7468C17.618 75.2563 17.2165 74.9601 16.6804 74.8532C15.5476 74.6267 14.4138 74.4038 13.2779 74.1926C12.3164 74.0141 11.5124 74.5609 11.3053 75.5194C11.2349 75.8441 11.1742 76.1704 11.1069 76.5064C11.1007 76.5051 11.0945 76.5038 11.0883 76.5029L10.8276 77.8088C10.8338 77.8101 10.84 77.8114 10.8462 77.8123C10.8462 77.8132 10.8462 77.8136 10.8458 77.8145C10.1414 77.8145 9.43755 77.8158 8.73455 77.8171H6.72695C6.69463 77.369 6.66143 76.9279 6.63177 76.4868C6.51667 74.7664 6.40246 73.0455 6.28824 71.3247C6.26434 70.9682 6.33649 70.8827 6.66718 70.8827C12.8852 70.8827 19.1033 70.8827 25.3218 70.8827C25.6476 70.8827 25.7251 70.9665 25.7025 71.3011Z" fill="white"/>
</g>
<defs>
<clipPath id="clip0_1174_34381">
<rect width="22" height="21" fill="white" transform="translate(5 5.5)"/>
</clipPath>
<clipPath id="clip1_1174_34381">
<rect width="22" height="21" fill="white" transform="translate(5 37.5)"/>
</clipPath>
<clipPath id="clip2_1174_34381">
<rect width="22" height="21" fill="white" transform="translate(5 69.5)"/>
</clipPath>
</defs>
</svg>
