<svg width="32" height="96" viewBox="0 0 32 96" fill="none" xmlns="http://www.w3.org/2000/svg">
<path d="M28 28L20.0001 20M22.6667 13.3333C22.6667 18.488 18.488 22.6667 13.3333 22.6667C8.17868 22.6667 4 18.488 4 13.3333C4 8.17868 8.17868 4 13.3333 4C18.488 4 22.6667 8.17868 22.6667 13.3333Z" stroke="#5A5A5A" stroke-width="2" stroke-linecap="round" stroke-linejoin="round"/>
<path d="M28 60L20.0001 52M22.6667 45.3333C22.6667 50.488 18.488 54.6667 13.3333 54.6667C8.17868 54.6667 4 50.488 4 45.3333C4 40.1787 8.17868 36 13.3333 36C18.488 36 22.6667 40.1787 22.6667 45.3333Z" stroke="#B7ABA5" stroke-width="2" stroke-linecap="round" stroke-linejoin="round"/>
<path d="M28 92L20.0001 84M22.6667 77.3333C22.6667 82.488 18.488 86.6667 13.3333 86.6667C8.17868 86.6667 4 82.488 4 77.3333C4 72.1787 8.17868 68 13.3333 68C18.488 68 22.6667 72.1787 22.6667 77.3333Z" stroke="white" stroke-width="2" stroke-linecap="round" stroke-linejoin="round"/>
</svg>
