<svg width="32" height="96" viewBox="0 0 32 96" fill="none" xmlns="http://www.w3.org/2000/svg">
<path d="M27 20C27.5128 20 27.9355 20.386 27.9933 20.8834L28 21V23C28 25.6888 25.8777 27.8818 23.2169 27.9954L23 28H21C20.4477 28 20 27.5523 20 27C20 26.4872 20.386 26.0645 20.8834 26.0067L21 26H23C24.5977 26 25.9037 24.7511 25.9949 23.1763L26 23V21C26 20.4477 26.4477 20 27 20Z" fill="#535353"/>
<path d="M5 20C5.51284 20 5.93551 20.386 5.99327 20.8834L6 21V23C6 24.5977 7.24892 25.9037 8.82373 25.9949L9 26H11C11.5523 26 12 26.4477 12 27C12 27.5128 11.614 27.9355 11.1166 27.9933L11 28H9C6.31125 28 4.11818 25.8777 4.00462 23.2169L4 23V21C4 20.4477 4.44772 20 5 20Z" fill="#535353"/>
<path d="M27 15C27.5523 15 28 15.4477 28 16C28 16.5128 27.614 16.9355 27.1166 16.9933L27 17H5C4.44772 17 4 16.5523 4 16C4 15.4872 4.38604 15.0645 4.88338 15.0067L5 15H27Z" fill="#535353"/>
<path d="M23 4C25.6888 4 27.8818 6.12231 27.9954 8.78311L28 9V11C28 11.5523 27.5523 12 27 12C26.4872 12 26.0645 11.614 26.0067 11.1166L26 11V9C26 7.40232 24.7511 6.09634 23.1763 6.00509L23 6H21C20.4477 6 20 5.55228 20 5C20 4.48716 20.386 4.06449 20.8834 4.00673L21 4H23Z" fill="#535353"/>
<path d="M11 4C11.5523 4 12 4.44772 12 5C12 5.51284 11.614 5.93551 11.1166 5.99327L11 6H9C7.40232 6 6.09634 7.24892 6.00509 8.82373L6 9V11C6 11.5523 5.55228 12 5 12C4.48716 12 4.06449 11.614 4.00673 11.1166L4 11V9C4 6.31125 6.12231 4.11818 8.78311 4.00462L9 4H11Z" fill="#535353"/>
<path d="M27 52C27.5128 52 27.9355 52.386 27.9933 52.8834L28 53V55C28 57.6888 25.8777 59.8818 23.2169 59.9954L23 60H21C20.4477 60 20 59.5523 20 59C20 58.4872 20.386 58.0645 20.8834 58.0067L21 58H23C24.5977 58 25.9037 56.7511 25.9949 55.1763L26 55V53C26 52.4477 26.4477 52 27 52Z" fill="#B7ABA5"/>
<path d="M5 52C5.51284 52 5.93551 52.386 5.99327 52.8834L6 53V55C6 56.5977 7.24892 57.9037 8.82373 57.9949L9 58H11C11.5523 58 12 58.4477 12 59C12 59.5128 11.614 59.9355 11.1166 59.9933L11 60H9C6.31125 60 4.11818 57.8777 4.00462 55.2169L4 55V53C4 52.4477 4.44772 52 5 52Z" fill="#B7ABA5"/>
<path d="M27 47C27.5523 47 28 47.4477 28 48C28 48.5128 27.614 48.9355 27.1166 48.9933L27 49H5C4.44772 49 4 48.5523 4 48C4 47.4872 4.38604 47.0645 4.88338 47.0067L5 47H27Z" fill="#B7ABA5"/>
<path d="M23 36C25.6888 36 27.8818 38.1223 27.9954 40.7831L28 41V43C28 43.5523 27.5523 44 27 44C26.4872 44 26.0645 43.614 26.0067 43.1166L26 43V41C26 39.4023 24.7511 38.0963 23.1763 38.0051L23 38H21C20.4477 38 20 37.5523 20 37C20 36.4872 20.386 36.0645 20.8834 36.0067L21 36H23Z" fill="#B7ABA5"/>
<path d="M11 36C11.5523 36 12 36.4477 12 37C12 37.5128 11.614 37.9355 11.1166 37.9933L11 38H9C7.40232 38 6.09634 39.2489 6.00509 40.8237L6 41V43C6 43.5523 5.55228 44 5 44C4.48716 44 4.06449 43.614 4.00673 43.1166L4 43V41C4 38.3112 6.12231 36.1182 8.78311 36.0046L9 36H11Z" fill="#B7ABA5"/>
<path d="M27 84C27.5128 84 27.9355 84.386 27.9933 84.8834L28 85V87C28 89.6888 25.8777 91.8818 23.2169 91.9954L23 92H21C20.4477 92 20 91.5523 20 91C20 90.4872 20.386 90.0645 20.8834 90.0067L21 90H23C24.5977 90 25.9037 88.7511 25.9949 87.1763L26 87V85C26 84.4477 26.4477 84 27 84Z" fill="white"/>
<path d="M5 84C5.51284 84 5.93551 84.386 5.99327 84.8834L6 85V87C6 88.5977 7.24892 89.9037 8.82373 89.9949L9 90H11C11.5523 90 12 90.4477 12 91C12 91.5128 11.614 91.9355 11.1166 91.9933L11 92H9C6.31125 92 4.11818 89.8777 4.00462 87.2169L4 87V85C4 84.4477 4.44772 84 5 84Z" fill="white"/>
<path d="M27 79C27.5523 79 28 79.4477 28 80C28 80.5128 27.614 80.9355 27.1166 80.9933L27 81H5C4.44772 81 4 80.5523 4 80C4 79.4872 4.38604 79.0645 4.88338 79.0067L5 79H27Z" fill="white"/>
<path d="M23 68C25.6888 68 27.8818 70.1223 27.9954 72.7831L28 73V75C28 75.5523 27.5523 76 27 76C26.4872 76 26.0645 75.614 26.0067 75.1166L26 75V73C26 71.4023 24.7511 70.0963 23.1763 70.0051L23 70H21C20.4477 70 20 69.5523 20 69C20 68.4872 20.386 68.0645 20.8834 68.0067L21 68H23Z" fill="white"/>
<path d="M11 68C11.5523 68 12 68.4477 12 69C12 69.5128 11.614 69.9355 11.1166 69.9933L11 70H9C7.40232 70 6.09634 71.2489 6.00509 72.8237L6 73V75C6 75.5523 5.55228 76 5 76C4.48716 76 4.06449 75.614 4.00673 75.1166L4 75V73C4 70.3112 6.12231 68.1182 8.78311 68.0046L9 68H11Z" fill="white"/>
</svg>
