<svg width="12" height="28" viewBox="0 0 12 28" fill="none" xmlns="http://www.w3.org/2000/svg">
<path d="M7.65 4.35L4.35 7.65M4.35 4.35L7.65 7.65M11.5 6C11.5 9.03757 9.03757 11.5 6 11.5C2.96243 11.5 0.5 9.03757 0.5 6C0.5 2.96243 2.96243 0.5 6 0.5C9.03757 0.5 11.5 2.96243 11.5 6Z" stroke="white" stroke-linecap="round" stroke-linejoin="round"/>
<path d="M7.65 20.35L4.35 23.65M4.35 20.35L7.65 23.65M11.5 22C11.5 25.0376 9.03757 27.5 6 27.5C2.96243 27.5 0.5 25.0376 0.5 22C0.5 18.9624 2.96243 16.5 6 16.5C9.03757 16.5 11.5 18.9624 11.5 22Z" stroke="#4D4D4D" stroke-linecap="round" stroke-linejoin="round"/>
</svg>
