<svg width="32" height="96" viewBox="0 0 32 96" fill="none" xmlns="http://www.w3.org/2000/svg">
<g clip-path="url(#clip0_1174_34382)">
<path d="M13.59 1C13.8475 1.05624 14.1065 1.10604 14.3618 1.16924C15.166 1.36955 15.8748 1.75195 16.5103 2.2795C16.5943 2.34913 16.7446 2.41607 16.8362 2.3893C18.2678 1.96512 19.394 2.41018 20.238 3.48884C20.8041 3.47545 21.3373 3.38762 21.8447 3.46581C23.015 3.64577 23.8041 4.35006 24.1445 5.4721C24.4881 6.60378 24.2107 7.6187 23.3474 8.44296C23.1653 8.61702 23.0937 8.78198 23.1018 9.02353C23.1174 9.48092 23.1061 9.93884 23.1061 10.4332C23.2342 10.4332 23.3393 10.4332 23.4443 10.4332C24.2888 10.4332 25.1334 10.43 25.9779 10.4337C27.66 10.4417 28.8939 11.6125 28.9908 13.2867C28.9952 13.3649 28.9984 13.4426 28.9984 13.5208C28.9984 16.753 29.0016 19.9853 28.9973 23.2175C28.9952 24.7155 28.1598 25.8515 26.7971 26.2066C26.5257 26.2773 26.2359 26.3019 25.9537 26.3062C25.1194 26.319 24.284 26.311 23.4497 26.311C23.3447 26.311 23.2391 26.311 23.1061 26.311C23.1061 26.8894 23.1136 27.4346 23.1044 27.9799C23.0807 29.4329 22.2335 30.5565 20.8892 30.8988C20.6172 30.9679 20.3269 30.9941 20.0452 30.9941C16.1958 31 12.3458 31 8.49645 30.9973C6.71421 30.9963 5.45819 29.7639 5.43179 27.9858C5.41887 27.1267 5.4291 26.2671 5.4291 25.408C5.4291 22.8495 5.4291 20.2911 5.4291 17.7326C5.4291 17.6094 5.4291 17.4857 5.4291 17.4075C5.03754 17.3893 4.67936 17.4214 4.34597 17.3464C3.58923 17.1767 3.07217 16.5484 3.02855 15.7777C3 15.2716 3.01346 14.7628 3.014 14.2551C3.01562 12.312 2.97038 10.3668 3.03447 8.42582C3.12926 5.55243 5.50558 3.34477 8.39088 3.37262C8.56593 3.37423 8.67257 3.32977 8.77975 3.18624C9.67599 1.98333 10.869 1.26565 12.3636 1.04981C12.4202 1.04178 12.4746 1.01714 12.5295 1C12.8828 1 13.2367 1 13.59 1ZM21.9039 27.4834V9.23241H20.691C20.691 9.35131 20.691 9.46645 20.691 9.58107C20.691 10.7915 20.6883 12.0024 20.6915 13.2128C20.6931 13.9241 20.4227 14.4939 19.7877 14.8389C19.5588 14.9631 19.5071 15.1008 19.5077 15.3386C19.5152 18.2966 19.513 21.2551 19.512 24.2131C19.512 24.3497 19.513 24.4879 19.491 24.6218C19.4441 24.9008 19.2163 25.085 18.9351 25.0899C18.64 25.0947 18.4024 24.9067 18.354 24.6159C18.3335 24.4916 18.3346 24.3631 18.3346 24.2367C18.3335 21.9032 18.334 19.5702 18.334 17.2367C18.334 16.5629 18.3389 15.8891 18.3281 15.2159C18.3265 15.1195 18.2737 14.9738 18.2005 14.9358C17.4432 14.5443 17.1378 13.9203 17.1507 13.0902C17.1642 12.2124 17.1491 11.333 17.1276 10.4551C17.1146 9.94205 16.8448 9.58321 16.3471 9.43807C16.0487 9.35077 15.7337 9.31917 15.4256 9.26668C15.1967 9.22759 15.0243 9.3106 14.8482 9.46913C13.9843 10.2452 12.9674 10.5226 11.8218 10.3255C11.1458 10.2093 10.5668 9.89974 10.0589 9.44396C9.77186 9.18635 9.72985 9.20081 9.54134 9.51626C8.94726 10.514 8.09249 11.1744 6.95335 11.4379C6.68459 11.5001 6.60164 11.5965 6.60218 11.876C6.61187 16.9528 6.60918 22.0296 6.60918 27.1063V27.4834H6.98405C9.71369 27.4834 12.4428 27.4834 15.1724 27.4834C15.2802 27.4834 15.3895 27.477 15.4961 27.4914C15.7832 27.531 15.9965 27.7704 16.0051 28.0506C16.0143 28.3414 15.8004 28.6001 15.5026 28.6451C15.3965 28.6611 15.2872 28.6542 15.1794 28.6542C12.4697 28.6542 9.76001 28.6542 7.0503 28.6552C6.94904 28.6552 6.84778 28.6638 6.74006 28.6692C6.98297 29.3949 7.63468 29.826 8.46521 29.826C12.3335 29.8271 16.2017 29.8265 20.07 29.826C20.1389 29.826 20.2073 29.8265 20.2762 29.8228C20.9764 29.7805 21.6508 29.2631 21.7833 28.6499C21.2597 28.6499 20.7411 28.6525 20.2224 28.6488C19.8125 28.6461 19.5491 28.4196 19.5448 28.0752C19.54 27.7196 19.8093 27.4855 20.2337 27.4828C20.782 27.4802 21.3308 27.4823 21.9055 27.4823L21.9039 27.4834ZM4.19247 11.8819C4.19247 12.5653 4.19247 13.2487 4.19247 13.9327C4.19247 14.4891 4.186 15.0461 4.1957 15.6021C4.20216 15.9855 4.43484 16.2282 4.78008 16.2415C5.13448 16.2549 5.38978 16.0118 5.42371 15.623C5.43233 15.526 5.42856 15.428 5.42856 15.33C5.42856 13.9241 5.42695 12.5177 5.43018 11.1118C5.43125 10.6378 5.61923 10.4091 6.05226 10.3882C7.23988 10.3298 8.08011 9.7562 8.63756 8.72735C8.91171 8.22069 9.42446 7.97915 9.97814 8.1275C10.262 8.20356 10.5555 8.33906 10.7801 8.5249C11.915 9.46538 13.094 9.46271 14.1895 8.48045C14.4803 8.21962 14.8137 8.07662 15.2053 8.09162C15.4891 8.10287 15.7746 8.11679 16.0557 8.15589C17.3064 8.33049 18.076 9.00586 18.2748 10.1241C18.3324 10.4482 18.3281 10.7851 18.3319 11.1166C18.34 11.8391 18.3281 12.5616 18.3394 13.2841C18.3453 13.6584 18.578 13.8925 18.9103 13.8984C19.2572 13.9048 19.4883 13.6681 19.5098 13.2803C19.5147 13.1925 19.512 13.1047 19.512 13.0168C19.512 11.5718 19.512 10.1268 19.512 8.68129C19.512 8.59346 19.5093 8.50562 19.5136 8.41779C19.5389 7.90952 19.9202 7.66851 20.391 7.86132C20.5089 7.90952 20.6253 7.96201 20.747 7.99843C21.5667 8.24533 22.4075 7.93577 22.8481 7.22826C23.2628 6.56254 23.1669 5.69329 22.6165 5.12022C22.0391 4.5193 21.1935 4.40468 20.4319 4.82404C19.9498 5.08969 19.6606 4.98954 19.4296 4.47699C18.9954 3.51455 17.9269 3.13215 16.9929 3.60506C16.5448 3.83215 16.3843 3.80644 16.0342 3.45082C14.1006 1.48898 10.9853 1.82694 9.54134 4.16367C9.34636 4.47967 9.1083 4.59749 8.74097 4.57071C6.17776 4.38219 4.20539 6.19727 4.19354 8.74771C4.1887 9.79262 4.19301 10.837 4.19247 11.8819ZM23.1206 25.1397C23.2391 25.1397 23.3447 25.1397 23.4502 25.1397C24.2549 25.1397 25.0601 25.1397 25.8648 25.1397C27.103 25.1391 27.8172 24.43 27.8188 23.1939C27.821 21.72 27.8194 20.2461 27.8194 18.7722C27.8194 17.0053 27.8248 15.2384 27.8172 13.4721C27.8124 12.3313 27.0745 11.6077 25.9337 11.6056C25.0897 11.604 24.2452 11.605 23.4012 11.6056C23.308 11.6056 23.2154 11.6136 23.1271 11.6179V12.7769C23.2434 12.7769 23.3398 12.7769 23.4362 12.7769C24.2705 12.7769 25.1048 12.7753 25.9391 12.7774C26.4115 12.7785 26.6388 12.9847 26.6393 13.4474C26.6436 16.7273 26.6436 20.0067 26.6393 23.2866C26.6388 23.7552 26.4163 23.9652 25.9493 23.9668C25.1151 23.9694 24.2808 23.9678 23.4465 23.9678C23.3414 23.9678 23.2364 23.9678 23.1211 23.9678V25.1397H23.1206ZM23.1314 13.9589V22.7778H25.4382V13.9589H23.1314Z" fill="#535353"/>
<path d="M8.90594 18.8996C8.90594 17.1911 8.90594 15.482 8.90594 13.7735C8.90594 13.705 8.90594 13.637 8.90594 13.5684C8.90702 13.0135 9.11223 12.7275 9.50433 12.7345C9.88943 12.7415 10.0849 13.0162 10.0849 13.5566C10.0849 16.964 10.0849 20.3719 10.0849 23.7792C10.0849 23.9549 10.0855 24.1306 10.0849 24.3062C10.0823 24.8247 9.88728 25.0861 9.50164 25.0893C9.1133 25.0925 8.90702 24.8284 8.90648 24.318C8.90486 23.0487 8.90648 21.7794 8.90648 20.5101C8.90648 19.9729 8.90648 19.4362 8.90648 18.899L8.90594 18.8996Z" fill="#535353"/>
<path d="M14.7989 18.9332C14.7989 20.7006 14.7989 22.4675 14.7983 24.2349C14.7983 24.3613 14.7994 24.4899 14.7789 24.6141C14.731 24.9055 14.494 25.094 14.1999 25.0897C13.9188 25.086 13.6899 24.9012 13.6419 24.6237C13.6204 24.5 13.6215 24.371 13.6209 24.2446C13.6198 20.6904 13.6198 17.1363 13.6209 13.5822C13.6209 13.4655 13.6198 13.3466 13.6371 13.232C13.6807 12.9438 13.9225 12.7376 14.2048 12.7344C14.4875 12.7317 14.7348 12.9352 14.78 13.2223C14.7999 13.3466 14.7983 13.4751 14.7983 13.602C14.7994 15.3791 14.7989 17.1562 14.7989 18.9332Z" fill="#535353"/>
<path d="M17.7607 28.6051C17.4364 28.5992 17.1833 28.3422 17.1871 28.0219C17.1903 27.7091 17.459 27.4429 17.7725 27.4424C18.0978 27.4413 18.3731 27.7252 18.3607 28.0487C18.3488 28.3689 18.0876 28.6116 17.7607 28.6057V28.6051Z" fill="#535353"/>
</g>
<g clip-path="url(#clip1_1174_34382)">
<path d="M13.59 33C13.8475 33.0562 14.1065 33.106 14.3618 33.1692C15.166 33.3696 15.8748 33.752 16.5103 34.2795C16.5943 34.3491 16.7446 34.4161 16.8362 34.3893C18.2678 33.9651 19.394 34.4102 20.238 35.4888C20.8041 35.4755 21.3373 35.3876 21.8447 35.4658C23.015 35.6458 23.8041 36.3501 24.1445 37.4721C24.4881 38.6038 24.2107 39.6187 23.3474 40.443C23.1653 40.617 23.0937 40.782 23.1018 41.0235C23.1174 41.4809 23.1061 41.9388 23.1061 42.4332C23.2342 42.4332 23.3393 42.4332 23.4443 42.4332C24.2888 42.4332 25.1334 42.43 25.9779 42.4337C27.66 42.4417 28.8939 43.6125 28.9908 45.2867C28.9952 45.3649 28.9984 45.4426 28.9984 45.5208C28.9984 48.753 29.0016 51.9853 28.9973 55.2175C28.9952 56.7155 28.1598 57.8515 26.7971 58.2066C26.5257 58.2773 26.2359 58.3019 25.9537 58.3062C25.1194 58.319 24.284 58.311 23.4497 58.311C23.3447 58.311 23.2391 58.311 23.1061 58.311C23.1061 58.8894 23.1136 59.4346 23.1044 59.9799C23.0807 61.4329 22.2335 62.5565 20.8892 62.8988C20.6172 62.9679 20.3269 62.9941 20.0452 62.9941C16.1958 63 12.3458 63 8.49645 62.9973C6.71421 62.9963 5.45819 61.7639 5.43179 59.9858C5.41887 59.1267 5.4291 58.2671 5.4291 57.408C5.4291 54.8495 5.4291 52.2911 5.4291 49.7326C5.4291 49.6094 5.4291 49.4857 5.4291 49.4075C5.03754 49.3893 4.67936 49.4214 4.34597 49.3464C3.58923 49.1767 3.07217 48.5484 3.02855 47.7777C3 47.2716 3.01346 46.7628 3.014 46.2551C3.01562 44.312 2.97038 42.3668 3.03447 40.4258C3.12926 37.5524 5.50558 35.3448 8.39088 35.3726C8.56593 35.3742 8.67257 35.3298 8.77975 35.1862C9.67599 33.9833 10.869 33.2656 12.3636 33.0498C12.4202 33.0418 12.4746 33.0171 12.5295 33C12.8828 33 13.2367 33 13.59 33ZM21.9039 59.4834V41.2324H20.691C20.691 41.3513 20.691 41.4665 20.691 41.5811C20.691 42.7915 20.6883 44.0024 20.6915 45.2128C20.6931 45.9241 20.4227 46.4939 19.7877 46.8389C19.5588 46.9631 19.5071 47.1008 19.5077 47.3386C19.5152 50.2966 19.513 53.2551 19.512 56.2131C19.512 56.3497 19.513 56.4879 19.491 56.6218C19.4441 56.9008 19.2163 57.085 18.9351 57.0899C18.64 57.0947 18.4024 56.9067 18.354 56.6159C18.3335 56.4916 18.3346 56.3631 18.3346 56.2367C18.3335 53.9032 18.334 51.5702 18.334 49.2367C18.334 48.5629 18.3389 47.8891 18.3281 47.2159C18.3265 47.1195 18.2737 46.9738 18.2005 46.9358C17.4432 46.5443 17.1378 45.9203 17.1507 45.0902C17.1642 44.2124 17.1491 43.333 17.1276 42.4551C17.1146 41.942 16.8448 41.5832 16.3471 41.4381C16.0487 41.3508 15.7337 41.3192 15.4256 41.2667C15.1967 41.2276 15.0243 41.3106 14.8482 41.4691C13.9843 42.2452 12.9674 42.5226 11.8218 42.3255C11.1458 42.2093 10.5668 41.8997 10.0589 41.444C9.77186 41.1863 9.72985 41.2008 9.54134 41.5163C8.94726 42.514 8.09249 43.1744 6.95335 43.4379C6.68459 43.5001 6.60164 43.5965 6.60218 43.876C6.61187 48.9528 6.60918 54.0296 6.60918 59.1063V59.4834H6.98405C9.71369 59.4834 12.4428 59.4834 15.1724 59.4834C15.2802 59.4834 15.3895 59.477 15.4961 59.4914C15.7832 59.531 15.9965 59.7704 16.0051 60.0506C16.0143 60.3414 15.8004 60.6001 15.5026 60.6451C15.3965 60.6611 15.2872 60.6542 15.1794 60.6542C12.4697 60.6542 9.76001 60.6542 7.0503 60.6552C6.94904 60.6552 6.84778 60.6638 6.74006 60.6692C6.98297 61.3949 7.63468 61.826 8.46521 61.826C12.3335 61.8271 16.2017 61.8265 20.07 61.826C20.1389 61.826 20.2073 61.8265 20.2762 61.8228C20.9764 61.7805 21.6508 61.2631 21.7833 60.6499C21.2597 60.6499 20.7411 60.6525 20.2224 60.6488C19.8125 60.6461 19.5491 60.4196 19.5448 60.0752C19.54 59.7196 19.8093 59.4855 20.2337 59.4828C20.782 59.4802 21.3308 59.4823 21.9055 59.4823L21.9039 59.4834ZM4.19247 43.8819C4.19247 44.5653 4.19247 45.2487 4.19247 45.9327C4.19247 46.4891 4.186 47.0461 4.1957 47.6021C4.20216 47.9855 4.43484 48.2282 4.78008 48.2415C5.13448 48.2549 5.38978 48.0118 5.42371 47.623C5.43233 47.526 5.42856 47.428 5.42856 47.33C5.42856 45.9241 5.42695 44.5177 5.43018 43.1118C5.43125 42.6378 5.61923 42.4091 6.05226 42.3882C7.23988 42.3298 8.08011 41.7562 8.63756 40.7274C8.91171 40.2207 9.42446 39.9791 9.97814 40.1275C10.262 40.2036 10.5555 40.3391 10.7801 40.5249C11.915 41.4654 13.094 41.4627 14.1895 40.4805C14.4803 40.2196 14.8137 40.0766 15.2053 40.0916C15.4891 40.1029 15.7746 40.1168 16.0557 40.1559C17.3064 40.3305 18.076 41.0059 18.2748 42.1241C18.3324 42.4482 18.3281 42.7851 18.3319 43.1166C18.34 43.8391 18.3281 44.5616 18.3394 45.2841C18.3453 45.6584 18.578 45.8925 18.9103 45.8984C19.2572 45.9048 19.4883 45.6681 19.5098 45.2803C19.5147 45.1925 19.512 45.1047 19.512 45.0168C19.512 43.5718 19.512 42.1268 19.512 40.6813C19.512 40.5935 19.5093 40.5056 19.5136 40.4178C19.5389 39.9095 19.9202 39.6685 20.391 39.8613C20.5089 39.9095 20.6253 39.962 20.747 39.9984C21.5667 40.2453 22.4075 39.9358 22.8481 39.2283C23.2628 38.5625 23.1669 37.6933 22.6165 37.1202C22.0391 36.5193 21.1935 36.4047 20.4319 36.824C19.9498 37.0897 19.6606 36.9895 19.4296 36.477C18.9954 35.5145 17.9269 35.1321 16.9929 35.6051C16.5448 35.8321 16.3843 35.8064 16.0342 35.4508C14.1006 33.489 10.9853 33.8269 9.54134 36.1637C9.34636 36.4797 9.1083 36.5975 8.74097 36.5707C6.17776 36.3822 4.20539 38.1973 4.19354 40.7477C4.1887 41.7926 4.19301 42.837 4.19247 43.8819ZM23.1206 57.1397C23.2391 57.1397 23.3447 57.1397 23.4502 57.1397C24.2549 57.1397 25.0601 57.1397 25.8648 57.1397C27.103 57.1391 27.8172 56.43 27.8188 55.1939C27.821 53.72 27.8194 52.2461 27.8194 50.7722C27.8194 49.0053 27.8248 47.2384 27.8172 45.4721C27.8124 44.3313 27.0745 43.6077 25.9337 43.6056C25.0897 43.604 24.2452 43.605 23.4012 43.6056C23.308 43.6056 23.2154 43.6136 23.1271 43.6179V44.7769C23.2434 44.7769 23.3398 44.7769 23.4362 44.7769C24.2705 44.7769 25.1048 44.7753 25.9391 44.7774C26.4115 44.7785 26.6388 44.9847 26.6393 45.4474C26.6436 48.7273 26.6436 52.0067 26.6393 55.2866C26.6388 55.7552 26.4163 55.9652 25.9493 55.9668C25.1151 55.9694 24.2808 55.9678 23.4465 55.9678C23.3414 55.9678 23.2364 55.9678 23.1211 55.9678V57.1397H23.1206ZM23.1314 45.9589V54.7778H25.4382V45.9589H23.1314Z" fill="#B7ABA5"/>
<path d="M8.90594 50.8996C8.90594 49.1911 8.90594 47.482 8.90594 45.7735C8.90594 45.705 8.90594 45.637 8.90594 45.5684C8.90702 45.0135 9.11223 44.7275 9.50433 44.7345C9.88943 44.7415 10.0849 45.0162 10.0849 45.5566C10.0849 48.964 10.0849 52.3719 10.0849 55.7792C10.0849 55.9549 10.0855 56.1306 10.0849 56.3062C10.0823 56.8247 9.88728 57.0861 9.50164 57.0893C9.1133 57.0925 8.90702 56.8284 8.90648 56.318C8.90486 55.0487 8.90648 53.7794 8.90648 52.5101C8.90648 51.9729 8.90648 51.4362 8.90648 50.899L8.90594 50.8996Z" fill="#B7ABA5"/>
<path d="M14.7989 50.9332C14.7989 52.7006 14.7989 54.4675 14.7983 56.2349C14.7983 56.3613 14.7994 56.4899 14.7789 56.6141C14.731 56.9055 14.494 57.094 14.1999 57.0897C13.9188 57.086 13.6899 56.9012 13.6419 56.6237C13.6204 56.5 13.6215 56.371 13.6209 56.2446C13.6198 52.6904 13.6198 49.1363 13.6209 45.5822C13.6209 45.4655 13.6198 45.3466 13.6371 45.232C13.6807 44.9438 13.9225 44.7376 14.2048 44.7344C14.4875 44.7317 14.7348 44.9352 14.78 45.2223C14.7999 45.3466 14.7983 45.4751 14.7983 45.602C14.7994 47.3791 14.7989 49.1562 14.7989 50.9332Z" fill="#B7ABA5"/>
<path d="M17.7607 60.6051C17.4364 60.5992 17.1833 60.3422 17.1871 60.0219C17.1903 59.7091 17.459 59.4429 17.7725 59.4424C18.0978 59.4413 18.3731 59.7252 18.3607 60.0487C18.3488 60.3689 18.0876 60.6116 17.7607 60.6057V60.6051Z" fill="#B7ABA5"/>
</g>
<g clip-path="url(#clip2_1174_34382)">
<path d="M13.59 65C13.8475 65.0562 14.1065 65.106 14.3618 65.1692C15.166 65.3696 15.8748 65.752 16.5103 66.2795C16.5943 66.3491 16.7446 66.4161 16.8362 66.3893C18.2678 65.9651 19.394 66.4102 20.238 67.4888C20.8041 67.4755 21.3373 67.3876 21.8447 67.4658C23.015 67.6458 23.8041 68.3501 24.1445 69.4721C24.4881 70.6038 24.2107 71.6187 23.3474 72.443C23.1653 72.617 23.0937 72.782 23.1018 73.0235C23.1174 73.4809 23.1061 73.9388 23.1061 74.4332C23.2342 74.4332 23.3393 74.4332 23.4443 74.4332C24.2888 74.4332 25.1334 74.43 25.9779 74.4337C27.66 74.4417 28.8939 75.6125 28.9908 77.2867C28.9952 77.3649 28.9984 77.4426 28.9984 77.5208C28.9984 80.753 29.0016 83.9853 28.9973 87.2175C28.9952 88.7155 28.1598 89.8515 26.7971 90.2066C26.5257 90.2773 26.2359 90.3019 25.9537 90.3062C25.1194 90.319 24.284 90.311 23.4497 90.311C23.3447 90.311 23.2391 90.311 23.1061 90.311C23.1061 90.8894 23.1136 91.4346 23.1044 91.9799C23.0807 93.4329 22.2335 94.5565 20.8892 94.8988C20.6172 94.9679 20.3269 94.9941 20.0452 94.9941C16.1958 95 12.3458 95 8.49645 94.9973C6.71421 94.9963 5.45819 93.7639 5.43179 91.9858C5.41887 91.1267 5.4291 90.2671 5.4291 89.408C5.4291 86.8495 5.4291 84.2911 5.4291 81.7326C5.4291 81.6094 5.4291 81.4857 5.4291 81.4075C5.03754 81.3893 4.67936 81.4214 4.34597 81.3464C3.58923 81.1767 3.07217 80.5484 3.02855 79.7777C3 79.2716 3.01346 78.7628 3.014 78.2551C3.01562 76.312 2.97038 74.3668 3.03447 72.4258C3.12926 69.5524 5.50558 67.3448 8.39088 67.3726C8.56593 67.3742 8.67257 67.3298 8.77975 67.1862C9.67599 65.9833 10.869 65.2656 12.3636 65.0498C12.4202 65.0418 12.4746 65.0171 12.5295 65C12.8828 65 13.2367 65 13.59 65ZM21.9039 91.4834V73.2324H20.691C20.691 73.3513 20.691 73.4665 20.691 73.5811C20.691 74.7915 20.6883 76.0024 20.6915 77.2128C20.6931 77.9241 20.4227 78.4939 19.7877 78.8389C19.5588 78.9631 19.5071 79.1008 19.5077 79.3386C19.5152 82.2966 19.513 85.2551 19.512 88.2131C19.512 88.3497 19.513 88.4879 19.491 88.6218C19.4441 88.9008 19.2163 89.085 18.9351 89.0899C18.64 89.0947 18.4024 88.9067 18.354 88.6159C18.3335 88.4916 18.3346 88.3631 18.3346 88.2367C18.3335 85.9032 18.334 83.5702 18.334 81.2367C18.334 80.5629 18.3389 79.8891 18.3281 79.2159C18.3265 79.1195 18.2737 78.9738 18.2005 78.9358C17.4432 78.5443 17.1378 77.9203 17.1507 77.0902C17.1642 76.2124 17.1491 75.333 17.1276 74.4551C17.1146 73.942 16.8448 73.5832 16.3471 73.4381C16.0487 73.3508 15.7337 73.3192 15.4256 73.2667C15.1967 73.2276 15.0243 73.3106 14.8482 73.4691C13.9843 74.2452 12.9674 74.5226 11.8218 74.3255C11.1458 74.2093 10.5668 73.8997 10.0589 73.444C9.77186 73.1863 9.72985 73.2008 9.54134 73.5163C8.94726 74.514 8.09249 75.1744 6.95335 75.4379C6.68459 75.5001 6.60164 75.5965 6.60218 75.876C6.61187 80.9528 6.60918 86.0296 6.60918 91.1063V91.4834H6.98405C9.71369 91.4834 12.4428 91.4834 15.1724 91.4834C15.2802 91.4834 15.3895 91.477 15.4961 91.4914C15.7832 91.531 15.9965 91.7704 16.0051 92.0506C16.0143 92.3414 15.8004 92.6001 15.5026 92.6451C15.3965 92.6611 15.2872 92.6542 15.1794 92.6542C12.4697 92.6542 9.76001 92.6542 7.0503 92.6552C6.94904 92.6552 6.84778 92.6638 6.74006 92.6692C6.98297 93.3949 7.63468 93.826 8.46521 93.826C12.3335 93.8271 16.2017 93.8265 20.07 93.826C20.1389 93.826 20.2073 93.8265 20.2762 93.8228C20.9764 93.7805 21.6508 93.2631 21.7833 92.6499C21.2597 92.6499 20.7411 92.6525 20.2224 92.6488C19.8125 92.6461 19.5491 92.4196 19.5448 92.0752C19.54 91.7196 19.8093 91.4855 20.2337 91.4828C20.782 91.4802 21.3308 91.4823 21.9055 91.4823L21.9039 91.4834ZM4.19247 75.8819C4.19247 76.5653 4.19247 77.2487 4.19247 77.9327C4.19247 78.4891 4.186 79.0461 4.1957 79.6021C4.20216 79.9855 4.43484 80.2282 4.78008 80.2415C5.13448 80.2549 5.38978 80.0118 5.42371 79.623C5.43233 79.526 5.42856 79.428 5.42856 79.33C5.42856 77.9241 5.42695 76.5177 5.43018 75.1118C5.43125 74.6378 5.61923 74.4091 6.05226 74.3882C7.23988 74.3298 8.08011 73.7562 8.63756 72.7274C8.91171 72.2207 9.42446 71.9791 9.97814 72.1275C10.262 72.2036 10.5555 72.3391 10.7801 72.5249C11.915 73.4654 13.094 73.4627 14.1895 72.4805C14.4803 72.2196 14.8137 72.0766 15.2053 72.0916C15.4891 72.1029 15.7746 72.1168 16.0557 72.1559C17.3064 72.3305 18.076 73.0059 18.2748 74.1241C18.3324 74.4482 18.3281 74.7851 18.3319 75.1166C18.34 75.8391 18.3281 76.5616 18.3394 77.2841C18.3453 77.6584 18.578 77.8925 18.9103 77.8984C19.2572 77.9048 19.4883 77.6681 19.5098 77.2803C19.5147 77.1925 19.512 77.1047 19.512 77.0168C19.512 75.5718 19.512 74.1268 19.512 72.6813C19.512 72.5935 19.5093 72.5056 19.5136 72.4178C19.5389 71.9095 19.9202 71.6685 20.391 71.8613C20.5089 71.9095 20.6253 71.962 20.747 71.9984C21.5667 72.2453 22.4075 71.9358 22.8481 71.2283C23.2628 70.5625 23.1669 69.6933 22.6165 69.1202C22.0391 68.5193 21.1935 68.4047 20.4319 68.824C19.9498 69.0897 19.6606 68.9895 19.4296 68.477C18.9954 67.5145 17.9269 67.1321 16.9929 67.6051C16.5448 67.8321 16.3843 67.8064 16.0342 67.4508C14.1006 65.489 10.9853 65.8269 9.54134 68.1637C9.34636 68.4797 9.1083 68.5975 8.74097 68.5707C6.17776 68.3822 4.20539 70.1973 4.19354 72.7477C4.1887 73.7926 4.19301 74.837 4.19247 75.8819ZM23.1206 89.1397C23.2391 89.1397 23.3447 89.1397 23.4502 89.1397C24.2549 89.1397 25.0601 89.1397 25.8648 89.1397C27.103 89.1391 27.8172 88.43 27.8188 87.1939C27.821 85.72 27.8194 84.2461 27.8194 82.7722C27.8194 81.0053 27.8248 79.2384 27.8172 77.4721C27.8124 76.3313 27.0745 75.6077 25.9337 75.6056C25.0897 75.604 24.2452 75.605 23.4012 75.6056C23.308 75.6056 23.2154 75.6136 23.1271 75.6179V76.7769C23.2434 76.7769 23.3398 76.7769 23.4362 76.7769C24.2705 76.7769 25.1048 76.7753 25.9391 76.7774C26.4115 76.7785 26.6388 76.9847 26.6393 77.4474C26.6436 80.7273 26.6436 84.0067 26.6393 87.2866C26.6388 87.7552 26.4163 87.9652 25.9493 87.9668C25.1151 87.9694 24.2808 87.9678 23.4465 87.9678C23.3414 87.9678 23.2364 87.9678 23.1211 87.9678V89.1397H23.1206ZM23.1314 77.9589V86.7778H25.4382V77.9589H23.1314Z" fill="white"/>
<path d="M8.90594 82.8996C8.90594 81.1911 8.90594 79.482 8.90594 77.7735C8.90594 77.705 8.90594 77.637 8.90594 77.5684C8.90702 77.0135 9.11223 76.7275 9.50433 76.7345C9.88943 76.7415 10.0849 77.0162 10.0849 77.5566C10.0849 80.964 10.0849 84.3719 10.0849 87.7792C10.0849 87.9549 10.0855 88.1306 10.0849 88.3062C10.0823 88.8247 9.88728 89.0861 9.50164 89.0893C9.1133 89.0925 8.90702 88.8284 8.90648 88.318C8.90486 87.0487 8.90648 85.7794 8.90648 84.5101C8.90648 83.9729 8.90648 83.4362 8.90648 82.899L8.90594 82.8996Z" fill="white"/>
<path d="M14.7989 82.9332C14.7989 84.7006 14.7989 86.4675 14.7983 88.2349C14.7983 88.3613 14.7994 88.4899 14.7789 88.6141C14.731 88.9055 14.494 89.094 14.1999 89.0897C13.9188 89.086 13.6899 88.9012 13.6419 88.6237C13.6204 88.5 13.6215 88.371 13.6209 88.2446C13.6198 84.6904 13.6198 81.1363 13.6209 77.5822C13.6209 77.4655 13.6198 77.3466 13.6371 77.232C13.6807 76.9438 13.9225 76.7376 14.2048 76.7344C14.4875 76.7317 14.7348 76.9352 14.78 77.2223C14.7999 77.3466 14.7983 77.4751 14.7983 77.602C14.7994 79.3791 14.7989 81.1562 14.7989 82.9332Z" fill="white"/>
<path d="M17.7607 92.6051C17.4364 92.5992 17.1833 92.3422 17.1871 92.0219C17.1903 91.7091 17.459 91.4429 17.7725 91.4424C18.0978 91.4413 18.3731 91.7252 18.3607 92.0487C18.3488 92.3689 18.0876 92.6116 17.7607 92.6057V92.6051Z" fill="white"/>
</g>
<defs>
<clipPath id="clip0_1174_34382">
<rect width="26" height="30" fill="white" transform="translate(3 1)"/>
</clipPath>
<clipPath id="clip1_1174_34382">
<rect width="26" height="30" fill="white" transform="translate(3 33)"/>
</clipPath>
<clipPath id="clip2_1174_34382">
<rect width="26" height="30" fill="white" transform="translate(3 65)"/>
</clipPath>
</defs>
</svg>
