<svg width="32" height="96" viewBox="0 0 32 96" fill="none" xmlns="http://www.w3.org/2000/svg">
<path d="M17.0082 2C17.6425 2.07225 18.2818 2.1199 18.9102 2.21982C22.7791 2.83548 26.0945 4.38039 28.5766 7.25269C30.2955 9.24263 31.1287 11.5239 30.9839 14.0833C30.879 15.9434 30.1324 17.5844 28.9454 19.0686C27.6835 20.6458 26.0945 21.914 24.4222 23.0976C21.2983 25.3089 18.1685 27.5148 15.0413 29.7231C14.9864 29.7615 14.9306 29.7991 14.8765 29.8391C14.6576 29.9998 14.4178 30.0559 14.1606 29.9344C13.9059 29.8145 13.8085 29.6078 13.8102 29.348C13.8144 28.6278 13.8119 27.9084 13.8119 27.1882C13.8119 26.3873 13.8119 25.5864 13.8119 24.7763C13.1784 24.6756 12.5558 24.598 11.944 24.4742C8.68524 23.8178 5.83101 22.4866 3.64601 20.1046C1.70823 17.9933 0.808425 15.5376 1.034 12.7729C1.24875 10.1404 2.50731 7.94444 4.52667 6.11207C6.82071 4.03067 9.60169 2.8155 12.7431 2.28054C13.4107 2.16679 14.0915 2.12221 14.7666 2.04458C14.8432 2.03536 14.9181 2.01537 14.9938 2C15.6656 2 16.3365 2 17.0082 2ZM15.0596 28.2373C15.172 28.1674 15.2377 28.1313 15.2985 28.0882C18.1902 26.046 21.0852 24.0061 23.9727 21.9585C25.2588 21.0462 26.4732 20.0608 27.5112 18.9018C30.1507 15.9534 30.4978 12.3778 28.4193 9.08967C27.0151 6.86839 24.9316 5.34423 22.3945 4.35503C18.5348 2.84932 14.5943 2.74632 10.6372 3.98609C7.91612 4.83848 5.60793 6.27579 3.98978 8.50783C1.92548 11.3548 1.65079 14.3723 3.26644 17.4737C4.4118 19.6727 6.32794 21.1692 8.6661 22.2322C10.4474 23.0423 12.3436 23.4696 14.3146 23.6403C14.9081 23.6918 15.0596 23.8593 15.0596 24.4104C15.0596 25.6679 15.0596 26.9253 15.0596 28.2358V28.2373Z" fill="#535353" stroke="#535353" stroke-width="0.5"/>
<path d="M18.466 14.6306C18.466 13.6318 18.4633 12.6338 18.4686 11.6349C18.4686 11.4689 18.4811 11.2966 18.5237 11.1368C18.6089 10.8225 18.87 10.6529 19.1896 10.6751C19.5083 10.6964 19.7365 10.8998 19.788 11.2238C19.8093 11.3579 19.8102 11.4964 19.8111 11.6331C19.8138 13.2642 19.8155 14.8961 19.8155 16.5271C19.8155 16.6736 19.8164 16.8246 19.7871 16.9675C19.6841 17.4665 19.0813 17.6663 18.7013 17.3271C18.5849 17.2232 18.4882 17.0945 18.3914 16.9702C17.6038 15.9571 16.819 14.9405 16.0296 13.9283C15.9355 13.8076 15.8219 13.7028 15.6567 13.5261C15.6425 13.7028 15.6292 13.7889 15.6292 13.875C15.6265 14.7594 15.6274 15.6437 15.6257 16.5271C15.6257 16.6319 15.6292 16.7384 15.615 16.8423C15.5608 17.2445 15.2865 17.5091 14.9384 17.5029C14.5487 17.4967 14.2477 17.2152 14.2459 16.7908C14.2361 14.9911 14.237 13.1914 14.2459 11.3916C14.2477 11.025 14.4332 10.8056 14.7484 10.7062C15.0539 10.6094 15.3025 10.7018 15.5617 11.0374C16.3732 12.086 17.1785 13.139 17.9874 14.1893C18.1135 14.3527 18.2502 14.5081 18.3816 14.667C18.41 14.6546 18.4376 14.6431 18.466 14.6306Z" fill="#535353"/>
<path d="M22.4064 14.8199V16.133C22.8689 16.133 23.3182 16.1295 23.7666 16.1339C24.0507 16.1366 24.3357 16.1348 24.6172 16.1632C25.0292 16.2041 25.2431 16.4385 25.2476 16.814C25.252 17.1967 25.0505 17.4693 24.642 17.4808C23.6343 17.5101 22.6239 17.511 21.6162 17.4844C21.2042 17.4737 20.9982 17.1878 20.9911 16.719C20.9787 15.9093 20.9813 15.0995 20.9813 14.2889C20.9813 13.3948 20.9804 12.5007 20.9858 11.6066C20.9902 10.9017 21.2122 10.6735 21.9074 10.6681C22.7695 10.6619 23.6325 10.6646 24.4947 10.6699C24.9679 10.6726 25.2272 10.9025 25.2573 11.3305C25.284 11.7052 25.0469 11.9733 24.5861 12.0017C23.9673 12.0399 23.3466 12.0417 22.726 12.0417C22.4827 12.0417 22.3815 12.1065 22.3602 12.3729C22.2838 13.3282 22.3185 13.3797 23.2783 13.3913C23.6778 13.3957 24.0782 13.3851 24.4769 13.401C24.9022 13.4179 25.1579 13.6026 25.2254 13.9053C25.331 14.3795 25.0673 14.7444 24.5648 14.7675C24.0081 14.7932 23.4505 14.779 22.8929 14.787C22.7375 14.7888 22.5813 14.8065 22.4046 14.819L22.4064 14.8199Z" fill="#535353"/>
<path d="M8.0511 16.131C8.66906 16.131 9.25595 16.1284 9.84195 16.1328C10.0204 16.1337 10.2024 16.1328 10.3756 16.1674C10.7085 16.2331 10.9438 16.5288 10.9394 16.8378C10.934 17.1654 10.6837 17.4806 10.3276 17.4886C9.30834 17.5117 8.28816 17.5072 7.26799 17.4877C6.95102 17.4815 6.75302 17.2657 6.69975 16.947C6.67578 16.8031 6.66335 16.6549 6.66335 16.5084C6.66068 14.9191 6.65891 13.3298 6.66335 11.7405C6.66335 11.5522 6.67844 11.3604 6.71928 11.1775C6.79031 10.8606 7.01495 10.6874 7.32393 10.675C7.63025 10.6626 7.88152 10.818 7.97208 11.1225C8.02802 11.3098 8.04489 11.5149 8.04577 11.712C8.05199 13.059 8.05021 14.4068 8.05021 15.7537C8.05021 15.8664 8.05021 15.9801 8.05021 16.131H8.0511Z" fill="#535353"/>
<path d="M11.7145 14.0448C11.7145 13.1622 11.711 12.2788 11.7163 11.3963C11.7199 10.812 11.9347 10.6229 12.5172 10.6726C12.8679 10.7019 13.0082 10.8271 13.0561 11.1707C13.0748 11.3057 13.0774 11.4433 13.0774 11.5792C13.0792 13.2395 13.0783 14.9007 13.0774 16.561C13.0774 16.6454 13.0757 16.7288 13.0748 16.8132C13.0659 17.5661 12.5571 17.5945 12.0555 17.4649C11.7447 17.385 11.719 17.0867 11.7172 16.8194C11.711 15.9679 11.7145 15.1165 11.7136 14.265C11.7136 14.1913 11.7136 14.1176 11.7136 14.0439L11.7145 14.0448Z" fill="#535353"/>
<path d="M17.0082 34C17.6425 34.0722 18.2818 34.1199 18.9102 34.2198C22.7791 34.8355 26.0945 36.3804 28.5766 39.2527C30.2955 41.2426 31.1287 43.5239 30.9839 46.0833C30.879 47.9434 30.1324 49.5844 28.9454 51.0686C27.6835 52.6458 26.0945 53.914 24.4222 55.0976C21.2983 57.3089 18.1685 59.5148 15.0413 61.7231C14.9864 61.7615 14.9306 61.7991 14.8765 61.8391C14.6576 61.9998 14.4178 62.0559 14.1606 61.9344C13.9059 61.8145 13.8085 61.6078 13.8102 61.348C13.8144 60.6278 13.8119 59.9084 13.8119 59.1882C13.8119 58.3873 13.8119 57.5864 13.8119 56.7763C13.1784 56.6756 12.5558 56.598 11.944 56.4742C8.68524 55.8178 5.83101 54.4866 3.64601 52.1046C1.70823 49.9933 0.808425 47.5376 1.034 44.7729C1.24875 42.1404 2.50731 39.9444 4.52667 38.1121C6.82071 36.0307 9.60169 34.8155 12.7431 34.2805C13.4107 34.1668 14.0915 34.1222 14.7666 34.0446C14.8432 34.0354 14.9181 34.0154 14.9938 34C15.6656 34 16.3365 34 17.0082 34ZM15.0596 60.2373C15.172 60.1674 15.2377 60.1313 15.2985 60.0882C18.1902 58.046 21.0852 56.0061 23.9727 53.9585C25.2588 53.0462 26.4732 52.0608 27.5112 50.9018C30.1507 47.9534 30.4978 44.3778 28.4193 41.0897C27.0151 38.8684 24.9316 37.3442 22.3945 36.355C18.5348 34.8493 14.5943 34.7463 10.6372 35.9861C7.91612 36.8385 5.60793 38.2758 3.98978 40.5078C1.92548 43.3548 1.65079 46.3723 3.26644 49.4737C4.4118 51.6727 6.32794 53.1692 8.6661 54.2322C10.4474 55.0423 12.3436 55.4696 14.3146 55.6403C14.9081 55.6918 15.0596 55.8593 15.0596 56.4104C15.0596 57.6679 15.0596 58.9253 15.0596 60.2358V60.2373Z" fill="#B7ABA5" stroke="#B7ABA5" stroke-width="0.5"/>
<path d="M18.466 46.6306C18.466 45.6318 18.4633 44.6338 18.4686 43.6349C18.4686 43.4689 18.4811 43.2966 18.5237 43.1368C18.6089 42.8225 18.87 42.6529 19.1896 42.6751C19.5083 42.6964 19.7365 42.8998 19.788 43.2238C19.8093 43.3579 19.8102 43.4964 19.8111 43.6331C19.8138 45.2642 19.8155 46.8961 19.8155 48.5271C19.8155 48.6736 19.8164 48.8246 19.7871 48.9675C19.6841 49.4665 19.0813 49.6663 18.7013 49.3271C18.5849 49.2232 18.4882 49.0945 18.3914 48.9702C17.6038 47.9571 16.819 46.9405 16.0296 45.9283C15.9355 45.8076 15.8219 45.7028 15.6567 45.5261C15.6425 45.7028 15.6292 45.7889 15.6292 45.875C15.6265 46.7594 15.6274 47.6437 15.6257 48.5271C15.6257 48.6319 15.6292 48.7384 15.615 48.8423C15.5608 49.2445 15.2865 49.5091 14.9384 49.5029C14.5487 49.4967 14.2477 49.2152 14.2459 48.7908C14.2361 46.9911 14.237 45.1914 14.2459 43.3916C14.2477 43.025 14.4332 42.8056 14.7484 42.7062C15.0539 42.6094 15.3025 42.7018 15.5617 43.0374C16.3732 44.086 17.1785 45.139 17.9874 46.1893C18.1135 46.3527 18.2502 46.5081 18.3816 46.667C18.41 46.6546 18.4376 46.6431 18.466 46.6306Z" fill="#B7ABA5"/>
<path d="M22.4064 46.8199V48.133C22.8689 48.133 23.3182 48.1295 23.7666 48.1339C24.0507 48.1366 24.3357 48.1348 24.6172 48.1632C25.0292 48.2041 25.2431 48.4385 25.2476 48.814C25.252 49.1967 25.0505 49.4693 24.642 49.4808C23.6343 49.5101 22.6239 49.511 21.6162 49.4844C21.2042 49.4737 20.9982 49.1878 20.9911 48.719C20.9787 47.9093 20.9813 47.0995 20.9813 46.2889C20.9813 45.3948 20.9804 44.5007 20.9858 43.6066C20.9902 42.9017 21.2122 42.6735 21.9074 42.6681C22.7695 42.6619 23.6325 42.6646 24.4947 42.6699C24.9679 42.6726 25.2272 42.9025 25.2573 43.3305C25.284 43.7052 25.0469 43.9733 24.5861 44.0017C23.9673 44.0399 23.3466 44.0417 22.726 44.0417C22.4827 44.0417 22.3815 44.1065 22.3602 44.3729C22.2838 45.3282 22.3185 45.3797 23.2783 45.3913C23.6778 45.3957 24.0782 45.3851 24.4769 45.401C24.9022 45.4179 25.1579 45.6026 25.2254 45.9053C25.331 46.3795 25.0673 46.7444 24.5648 46.7675C24.0081 46.7932 23.4505 46.779 22.8929 46.787C22.7375 46.7888 22.5813 46.8065 22.4046 46.819L22.4064 46.8199Z" fill="#B7ABA5"/>
<path d="M8.0511 48.131C8.66906 48.131 9.25595 48.1284 9.84195 48.1328C10.0204 48.1337 10.2024 48.1328 10.3756 48.1674C10.7085 48.2331 10.9438 48.5288 10.9394 48.8378C10.934 49.1654 10.6837 49.4806 10.3276 49.4886C9.30834 49.5117 8.28816 49.5072 7.26799 49.4877C6.95102 49.4815 6.75302 49.2657 6.69975 48.947C6.67578 48.8031 6.66335 48.6549 6.66335 48.5084C6.66068 46.9191 6.65891 45.3298 6.66335 43.7405C6.66335 43.5522 6.67844 43.3604 6.71928 43.1775C6.79031 42.8606 7.01495 42.6874 7.32393 42.675C7.63025 42.6626 7.88152 42.818 7.97208 43.1225C8.02802 43.3098 8.04489 43.5149 8.04577 43.712C8.05199 45.059 8.05021 46.4068 8.05021 47.7537C8.05021 47.8664 8.05021 47.9801 8.05021 48.131H8.0511Z" fill="#B7ABA5"/>
<path d="M11.7145 46.0448C11.7145 45.1622 11.711 44.2788 11.7163 43.3963C11.7199 42.812 11.9347 42.6229 12.5172 42.6726C12.8679 42.7019 13.0082 42.8271 13.0561 43.1707C13.0748 43.3057 13.0774 43.4433 13.0774 43.5792C13.0792 45.2395 13.0783 46.9007 13.0774 48.561C13.0774 48.6454 13.0757 48.7288 13.0748 48.8132C13.0659 49.5661 12.5571 49.5945 12.0555 49.4649C11.7447 49.385 11.719 49.0867 11.7172 48.8194C11.711 47.9679 11.7145 47.1165 11.7136 46.265C11.7136 46.1913 11.7136 46.1176 11.7136 46.0439L11.7145 46.0448Z" fill="#B7ABA5"/>
<path d="M17.0082 66C17.6425 66.0722 18.2818 66.1199 18.9102 66.2198C22.7791 66.8355 26.0945 68.3804 28.5766 71.2527C30.2955 73.2426 31.1287 75.5239 30.9839 78.0833C30.879 79.9434 30.1324 81.5844 28.9454 83.0686C27.6835 84.6458 26.0945 85.914 24.4222 87.0976C21.2983 89.3089 18.1685 91.5148 15.0413 93.7231C14.9864 93.7615 14.9306 93.7991 14.8765 93.8391C14.6576 93.9998 14.4178 94.0559 14.1606 93.9344C13.9059 93.8145 13.8085 93.6078 13.8102 93.348C13.8144 92.6278 13.8119 91.9084 13.8119 91.1882C13.8119 90.3873 13.8119 89.5864 13.8119 88.7763C13.1784 88.6756 12.5558 88.598 11.944 88.4742C8.68524 87.8178 5.83101 86.4866 3.64601 84.1046C1.70823 81.9933 0.808425 79.5376 1.034 76.7729C1.24875 74.1404 2.50731 71.9444 4.52667 70.1121C6.82071 68.0307 9.60169 66.8155 12.7431 66.2805C13.4107 66.1668 14.0915 66.1222 14.7666 66.0446C14.8432 66.0354 14.9181 66.0154 14.9938 66C15.6656 66 16.3365 66 17.0082 66ZM15.0596 92.2373C15.172 92.1674 15.2377 92.1313 15.2985 92.0882C18.1902 90.046 21.0852 88.0061 23.9727 85.9585C25.2588 85.0462 26.4732 84.0608 27.5112 82.9018C30.1507 79.9534 30.4978 76.3778 28.4193 73.0897C27.0151 70.8684 24.9316 69.3442 22.3945 68.355C18.5348 66.8493 14.5943 66.7463 10.6372 67.9861C7.91612 68.8385 5.60793 70.2758 3.98978 72.5078C1.92548 75.3548 1.65079 78.3723 3.26644 81.4737C4.4118 83.6727 6.32794 85.1692 8.6661 86.2322C10.4474 87.0423 12.3436 87.4696 14.3146 87.6403C14.9081 87.6918 15.0596 87.8593 15.0596 88.4104C15.0596 89.6679 15.0596 90.9253 15.0596 92.2358V92.2373Z" fill="white" stroke="white" stroke-width="0.5"/>
<path d="M18.466 78.6306C18.466 77.6318 18.4633 76.6338 18.4686 75.6349C18.4686 75.4689 18.4811 75.2966 18.5237 75.1368C18.6089 74.8225 18.87 74.6529 19.1896 74.6751C19.5083 74.6964 19.7365 74.8998 19.788 75.2238C19.8093 75.3579 19.8102 75.4964 19.8111 75.6331C19.8138 77.2642 19.8155 78.8961 19.8155 80.5271C19.8155 80.6736 19.8164 80.8246 19.7871 80.9675C19.6841 81.4665 19.0813 81.6663 18.7013 81.3271C18.5849 81.2232 18.4882 81.0945 18.3914 80.9702C17.6038 79.9571 16.819 78.9405 16.0296 77.9283C15.9355 77.8076 15.8219 77.7028 15.6567 77.5261C15.6425 77.7028 15.6292 77.7889 15.6292 77.875C15.6265 78.7594 15.6274 79.6437 15.6257 80.5271C15.6257 80.6319 15.6292 80.7384 15.615 80.8423C15.5608 81.2445 15.2865 81.5091 14.9384 81.5029C14.5487 81.4967 14.2477 81.2152 14.2459 80.7908C14.2361 78.9911 14.237 77.1914 14.2459 75.3916C14.2477 75.025 14.4332 74.8056 14.7484 74.7062C15.0539 74.6094 15.3025 74.7018 15.5617 75.0374C16.3732 76.086 17.1785 77.139 17.9874 78.1893C18.1135 78.3527 18.2502 78.5081 18.3816 78.667C18.41 78.6546 18.4376 78.6431 18.466 78.6306Z" fill="white"/>
<path d="M22.4064 78.8199V80.133C22.8689 80.133 23.3182 80.1295 23.7666 80.1339C24.0507 80.1366 24.3357 80.1348 24.6172 80.1632C25.0292 80.2041 25.2431 80.4385 25.2476 80.814C25.252 81.1967 25.0505 81.4693 24.642 81.4808C23.6343 81.5101 22.6239 81.511 21.6162 81.4844C21.2042 81.4737 20.9982 81.1878 20.9911 80.719C20.9787 79.9093 20.9813 79.0995 20.9813 78.2889C20.9813 77.3948 20.9804 76.5007 20.9858 75.6066C20.9902 74.9017 21.2122 74.6735 21.9074 74.6681C22.7695 74.6619 23.6325 74.6646 24.4947 74.6699C24.9679 74.6726 25.2272 74.9025 25.2573 75.3305C25.284 75.7052 25.0469 75.9733 24.5861 76.0017C23.9673 76.0399 23.3466 76.0417 22.726 76.0417C22.4827 76.0417 22.3815 76.1065 22.3602 76.3729C22.2838 77.3282 22.3185 77.3797 23.2783 77.3913C23.6778 77.3957 24.0782 77.3851 24.4769 77.401C24.9022 77.4179 25.1579 77.6026 25.2254 77.9053C25.331 78.3795 25.0673 78.7444 24.5648 78.7675C24.0081 78.7932 23.4505 78.779 22.8929 78.787C22.7375 78.7888 22.5813 78.8065 22.4046 78.819L22.4064 78.8199Z" fill="white"/>
<path d="M8.0511 80.131C8.66906 80.131 9.25595 80.1284 9.84195 80.1328C10.0204 80.1337 10.2024 80.1328 10.3756 80.1674C10.7085 80.2331 10.9438 80.5288 10.9394 80.8378C10.934 81.1654 10.6837 81.4806 10.3276 81.4886C9.30834 81.5117 8.28816 81.5072 7.26799 81.4877C6.95102 81.4815 6.75302 81.2657 6.69975 80.947C6.67578 80.8031 6.66335 80.6549 6.66335 80.5084C6.66068 78.9191 6.65891 77.3298 6.66335 75.7405C6.66335 75.5522 6.67844 75.3604 6.71928 75.1775C6.79031 74.8606 7.01495 74.6874 7.32393 74.675C7.63025 74.6626 7.88152 74.818 7.97208 75.1225C8.02802 75.3098 8.04489 75.5149 8.04577 75.712C8.05199 77.059 8.05021 78.4068 8.05021 79.7537C8.05021 79.8664 8.05021 79.9801 8.05021 80.131H8.0511Z" fill="white"/>
<path d="M11.7145 78.0448C11.7145 77.1622 11.711 76.2788 11.7163 75.3963C11.7199 74.812 11.9347 74.6229 12.5172 74.6726C12.8679 74.7019 13.0082 74.8271 13.0561 75.1707C13.0748 75.3057 13.0774 75.4433 13.0774 75.5792C13.0792 77.2395 13.0783 78.9007 13.0774 80.561C13.0774 80.6454 13.0757 80.7288 13.0748 80.8132C13.0659 81.5661 12.5571 81.5945 12.0555 81.4649C11.7447 81.385 11.719 81.0867 11.7172 80.8194C11.711 79.9679 11.7145 79.1165 11.7136 78.265C11.7136 78.1913 11.7136 78.1176 11.7136 78.0439L11.7145 78.0448Z" fill="white"/>
</svg>
