<svg width="32" height="96" viewBox="0 0 32 96" fill="none" xmlns="http://www.w3.org/2000/svg">
<path d="M25 9.78143H23V5.63597H23.5C23.776 5.63597 24 5.40383 24 5.11779C24 4.83175 23.776 4.59961 23.5 4.59961H4.5C4.224 4.59961 4 4.83175 4 5.11779C4 5.40383 4.224 5.63597 4.5 5.63597H5V22.736C5 25.3072 7.019 27.3996 9.5 27.3996H18.5C20.981 27.3996 23 25.3072 23 22.736V20.1451H25C26.654 20.1451 28 18.7501 28 17.036V12.8905C28 11.1764 26.654 9.78143 25 9.78143ZM22 22.736C22 24.7362 20.43 26.3632 18.5 26.3632H9.5C7.57 26.3632 6 24.7362 6 22.736V5.63597H22V22.736ZM27 17.036C27 18.1791 26.103 19.1087 25 19.1087H23V10.8178H25C26.103 10.8178 27 11.7474 27 12.8905V17.036ZM18.5 9.26325V22.736C18.5 23.022 18.276 23.2542 18 23.2542C17.724 23.2542 17.5 23.022 17.5 22.736V9.26325C17.5 8.97721 17.724 8.74506 18 8.74506C18.276 8.74506 18.5 8.97721 18.5 9.26325ZM14.5 9.26325V22.736C14.5 23.022 14.276 23.2542 14 23.2542C13.724 23.2542 13.5 23.022 13.5 22.736V9.26325C13.5 8.97721 13.724 8.74506 14 8.74506C14.276 8.74506 14.5 8.97721 14.5 9.26325ZM10.5 9.26325V22.736C10.5 23.022 10.276 23.2542 10 23.2542C9.724 23.2542 9.5 23.022 9.5 22.736V9.26325C9.5 8.97721 9.724 8.74506 10 8.74506C10.276 8.74506 10.5 8.97721 10.5 9.26325Z" fill="#535353"/>
<path d="M25 41.7814H23V37.636H23.5C23.776 37.636 24 37.4038 24 37.1178C24 36.8318 23.776 36.5996 23.5 36.5996H4.5C4.224 36.5996 4 36.8318 4 37.1178C4 37.4038 4.224 37.636 4.5 37.636H5V54.736C5 57.3072 7.019 59.3996 9.5 59.3996H18.5C20.981 59.3996 23 57.3072 23 54.736V52.1451H25C26.654 52.1451 28 50.7501 28 49.036V44.8905C28 43.1764 26.654 41.7814 25 41.7814ZM22 54.736C22 56.7362 20.43 58.3632 18.5 58.3632H9.5C7.57 58.3632 6 56.7362 6 54.736V37.636H22V54.736ZM27 49.036C27 50.1791 26.103 51.1087 25 51.1087H23V42.8178H25C26.103 42.8178 27 43.7474 27 44.8905V49.036ZM18.5 41.2632V54.736C18.5 55.022 18.276 55.2542 18 55.2542C17.724 55.2542 17.5 55.022 17.5 54.736V41.2632C17.5 40.9772 17.724 40.7451 18 40.7451C18.276 40.7451 18.5 40.9772 18.5 41.2632ZM14.5 41.2632V54.736C14.5 55.022 14.276 55.2542 14 55.2542C13.724 55.2542 13.5 55.022 13.5 54.736V41.2632C13.5 40.9772 13.724 40.7451 14 40.7451C14.276 40.7451 14.5 40.9772 14.5 41.2632ZM10.5 41.2632V54.736C10.5 55.022 10.276 55.2542 10 55.2542C9.724 55.2542 9.5 55.022 9.5 54.736V41.2632C9.5 40.9772 9.724 40.7451 10 40.7451C10.276 40.7451 10.5 40.9772 10.5 41.2632Z" fill="#B7ABA5"/>
<path d="M25 73.7814H23V69.636H23.5C23.776 69.636 24 69.4038 24 69.1178C24 68.8318 23.776 68.5996 23.5 68.5996H4.5C4.224 68.5996 4 68.8318 4 69.1178C4 69.4038 4.224 69.636 4.5 69.636H5V86.736C5 89.3072 7.019 91.3996 9.5 91.3996H18.5C20.981 91.3996 23 89.3072 23 86.736V84.1451H25C26.654 84.1451 28 82.7501 28 81.036V76.8905C28 75.1764 26.654 73.7814 25 73.7814ZM22 86.736C22 88.7362 20.43 90.3632 18.5 90.3632H9.5C7.57 90.3632 6 88.7362 6 86.736V69.636H22V86.736ZM27 81.036C27 82.1791 26.103 83.1087 25 83.1087H23V74.8178H25C26.103 74.8178 27 75.7474 27 76.8905V81.036ZM18.5 73.2632V86.736C18.5 87.022 18.276 87.2542 18 87.2542C17.724 87.2542 17.5 87.022 17.5 86.736V73.2632C17.5 72.9772 17.724 72.7451 18 72.7451C18.276 72.7451 18.5 72.9772 18.5 73.2632ZM14.5 73.2632V86.736C14.5 87.022 14.276 87.2542 14 87.2542C13.724 87.2542 13.5 87.022 13.5 86.736V73.2632C13.5 72.9772 13.724 72.7451 14 72.7451C14.276 72.7451 14.5 72.9772 14.5 73.2632ZM10.5 73.2632V86.736C10.5 87.022 10.276 87.2542 10 87.2542C9.724 87.2542 9.5 87.022 9.5 86.736V73.2632C9.5 72.9772 9.724 72.7451 10 72.7451C10.276 72.7451 10.5 72.9772 10.5 73.2632Z" fill="white"/>
</svg>
