<svg width="32" height="96" viewBox="0 0 32 96" fill="none" xmlns="http://www.w3.org/2000/svg">
<path d="M16 5.71429C17.1366 5.71429 18.2857 5.71429 19.0305 6.96954C19.1429 7.31385 19.1429 7.7205 19.1429 8.85714V9.71429H12.8571V8.85714C12.8571 7.7205 12.8012 7.25335 12.9695 6.96954C13.7143 5.71429 15.0648 5.71429 16 5.71429ZM20.8571 9.71429V8.85714C20.8571 7.26584 21.0261 6.96954 20.2426 5.75736C19.1174 4.63214 17.5913 4 16 4C14.4087 4 12.8826 4.63214 11.7574 5.75736C11.0014 6.51329 11.1429 7.26584 11.1429 8.85714V9.71429H6.28571L4 24.5714C4 25.4807 4.36122 26.3528 5.00421 26.9958C5.64719 27.6388 6.51926 28 7.42857 28H24.5714C25.4807 28 26.3528 27.6388 26.9958 26.9958C27.6388 26.3528 28 25.4807 28 24.5714L25.7143 9.71429H20.8571ZM8 11.4286H24L26.2857 24.5714C26.2857 25.0261 26.1051 25.4621 25.7836 25.7836C25.4621 26.1051 25.0261 26.2857 24.5714 26.2857H7.42857C6.97391 26.2857 6.53788 26.1051 6.21639 25.7836C5.8949 25.4621 5.71429 25.0261 5.71429 24.5714L8 11.4286Z" fill="#464646"/>
<path d="M16 37.7143C17.1366 37.7143 18.2857 37.7143 19.0305 38.9695C19.1429 39.3139 19.1429 39.7205 19.1429 40.8571V41.7143H12.8571V40.8571C12.8571 39.7205 12.8012 39.2533 12.9695 38.9695C13.7143 37.7143 15.0648 37.7143 16 37.7143ZM20.8571 41.7143V40.8571C20.8571 39.2658 21.0261 38.9695 20.2426 37.7574C19.1174 36.6321 17.5913 36 16 36C14.4087 36 12.8826 36.6321 11.7574 37.7574C11.0014 38.5133 11.1429 39.2658 11.1429 40.8571V41.7143H6.28571L4 56.5714C4 57.4807 4.36122 58.3528 5.00421 58.9958C5.64719 59.6388 6.51926 60 7.42857 60H24.5714C25.4807 60 26.3528 59.6388 26.9958 58.9958C27.6388 58.3528 28 57.4807 28 56.5714L25.7143 41.7143H20.8571ZM8 43.4286H24L26.2857 56.5714C26.2857 57.0261 26.1051 57.4621 25.7836 57.7836C25.4621 58.1051 25.0261 58.2857 24.5714 58.2857H7.42857C6.97391 58.2857 6.53788 58.1051 6.21639 57.7836C5.8949 57.4621 5.71429 57.0261 5.71429 56.5714L8 43.4286Z" fill="#B7ABA5"/>
<path d="M16 69.7143C17.1366 69.7143 18.2857 69.7143 19.0305 70.9695C19.1429 71.3139 19.1429 71.7205 19.1429 72.8571V73.7143H12.8571V72.8571C12.8571 71.7205 12.8012 71.2533 12.9695 70.9695C13.7143 69.7143 15.0648 69.7143 16 69.7143ZM20.8571 73.7143V72.8571C20.8571 71.2658 21.0261 70.9695 20.2426 69.7574C19.1174 68.6321 17.5913 68 16 68C14.4087 68 12.8826 68.6321 11.7574 69.7574C11.0014 70.5133 11.1429 71.2658 11.1429 72.8571V73.7143H6.28571L4 88.5714C4 89.4807 4.36122 90.3528 5.00421 90.9958C5.64719 91.6388 6.51926 92 7.42857 92H24.5714C25.4807 92 26.3528 91.6388 26.9958 90.9958C27.6388 90.3528 28 89.4807 28 88.5714L25.7143 73.7143H20.8571ZM8 75.4286H24L26.2857 88.5714C26.2857 89.0261 26.1051 89.4621 25.7836 89.7836C25.4621 90.1051 25.0261 90.2857 24.5714 90.2857H7.42857C6.97391 90.2857 6.53788 90.1051 6.21639 89.7836C5.8949 89.4621 5.71429 89.0261 5.71429 88.5714L8 75.4286Z" fill="white"/>
</svg>
