<svg width="32" height="64" viewBox="0 0 32 64" fill="none" xmlns="http://www.w3.org/2000/svg">
<path d="M14.6071 8.05882C14.4304 8.41176 14.4304 11.7647 14.4304 11.7647C14.4304 11.7647 7.88913 16.1765 7.17222 17.0588C7.00755 17.4118 6.81865 19.1765 7.34931 19C7.87996 18.8235 14.6071 16.1765 14.6071 16.1765L14.4801 21.0438C14.4801 21.0438 11.7785 22.7059 11.6017 23.0588C11.5044 23.2532 11.2481 25 11.7785 25C12.3089 25 16.0215 23.4118 16.0215 23.4118C16.0215 23.4118 19.7341 25 20.2644 25C20.7948 25 20.5573 23.1747 20.2644 22.8824C19.9715 22.59 17.4358 21.1176 17.4358 21.1176V16.1765C17.4358 16.1765 23.8996 18.7812 24.5571 19C25.2145 19.2188 25.0378 17.5882 24.6842 16.8824C24.3306 16.1765 17.6126 11.7647 17.6126 11.7647C17.6126 11.7647 17.6126 8.41176 17.4358 8.05882L17.4356 8.05845C17.2587 7.70538 16.9054 7 16.0215 7C15.1375 7 14.7842 7.70538 14.6073 8.05845L14.6071 8.05882Z" fill="#43AAB1"/>
<path d="M14.6071 40.0588C14.4304 40.4118 14.4304 43.7647 14.4304 43.7647C14.4304 43.7647 7.88913 48.1765 7.17222 49.0588C7.00755 49.4118 6.81865 51.1765 7.34931 51C7.87996 50.8235 14.6071 48.1765 14.6071 48.1765L14.4801 53.0438C14.4801 53.0438 11.7785 54.7059 11.6017 55.0588C11.5044 55.2532 11.2481 57 11.7785 57C12.3089 57 16.0215 55.4118 16.0215 55.4118C16.0215 55.4118 19.7341 57 20.2644 57C20.7948 57 20.5573 55.1747 20.2644 54.8824C19.9715 54.59 17.4358 53.1176 17.4358 53.1176V48.1765C17.4358 48.1765 23.8996 50.7812 24.5571 51C25.2145 51.2188 25.0378 49.5882 24.6842 48.8824C24.3306 48.1765 17.6126 43.7647 17.6126 43.7647C17.6126 43.7647 17.6126 40.4118 17.4358 40.0588L17.4356 40.0584C17.2587 39.7054 16.9054 39 16.0215 39C15.1375 39 14.7842 39.7054 14.6073 40.0584L14.6071 40.0588Z" fill="white"/>
</svg>
