<svg width="32" height="96" viewBox="0 0 32 96" fill="none" xmlns="http://www.w3.org/2000/svg">
<path d="M18.5196 29.1036C14.9791 29.1036 11.4391 29.1067 7.89851 29.1024C6.19061 29.1006 4.48271 29.0853 2.77482 29.0749C2.35885 29.0724 2.2726 28.9862 2.27138 28.5733C2.26954 27.564 2.26954 26.5553 2.27138 25.5459C2.27199 25.1471 2.37659 25.0468 2.78155 25.0443C3.03602 25.0425 3.2911 25.029 3.54435 25.048C3.83308 25.0688 3.93584 24.9428 3.90342 24.6712C3.89975 24.6412 3.90342 24.61 3.90342 24.5794C3.90342 18.8709 3.90342 13.1625 3.90342 7.45459C3.90342 6.9695 3.90342 6.96767 3.4165 6.96155C3.07088 6.95727 2.72466 6.95727 2.37904 6.95971C2.12457 6.96155 2.00161 6.83125 2.001 6.58535C1.99978 5.49283 1.99917 4.40215 2.00223 3.31147C2.00345 3.06373 2.13803 2.94261 2.38822 2.94261C3.7089 2.94261 5.02958 2.94567 6.35027 2.93833C7.07208 2.93405 7.7939 2.9004 8.51572 2.89979C10.6114 2.89734 12.7072 2.90835 14.8029 2.90774C17.0815 2.90774 19.3607 2.89979 21.6394 2.89734C23.6635 2.89551 25.6871 2.89367 27.7112 2.89918C28.2495 2.9004 28.7878 2.92854 29.3261 2.94261C29.5739 2.94934 29.7023 3.07229 29.7023 3.32248C29.7023 4.41316 29.7035 5.50384 29.7017 6.59452C29.7017 6.84655 29.5696 6.964 29.3176 6.95849C29.0937 6.9536 28.8698 6.96338 28.6459 6.95849C28.4544 6.9536 28.3596 7.03373 28.3682 7.22948C28.3719 7.31084 28.3676 7.3928 28.3676 7.47416C28.3676 13.1618 28.3676 18.8501 28.3676 24.5378C28.3676 24.8743 28.5352 25.0427 28.8704 25.0431C29.1145 25.0431 29.3585 25.0449 29.6026 25.0437C29.8516 25.0425 29.9935 25.1722 29.9947 25.4132C30.0015 26.5143 30.0021 27.6147 29.9947 28.7158C29.9929 29.0088 29.7935 29.0755 29.5359 29.0767C28.1327 29.0816 26.7288 29.0994 25.3255 29.1024C23.0567 29.1073 20.7879 29.1036 18.5196 29.1036ZM23.6727 24.9642C23.7039 24.9709 23.7516 24.9893 23.7999 24.9905C24.3688 25.004 24.9383 25.0162 25.5072 25.0254C25.9464 25.0321 25.9483 25.0296 25.9483 24.5953C25.9483 18.8654 25.9483 13.1362 25.9483 7.40626C25.9483 6.97501 25.9342 6.96216 25.5035 6.96216C19.2867 6.96094 13.0699 6.95971 6.85248 6.95849C6.50136 6.95849 6.32559 7.13956 6.32519 7.50169C6.32519 13.1704 6.32519 18.8385 6.32519 24.5072C6.32519 24.5886 6.32947 24.6706 6.32519 24.7519C6.31417 24.9587 6.40777 25.0498 6.61575 25.0437C7.01214 25.0327 7.40914 25.0278 7.80553 25.026C8.3995 25.0223 8.38298 25.0241 8.38176 24.4577C8.37564 21.5319 8.37013 18.6055 8.3842 15.6796C8.3891 14.685 8.95554 13.921 9.88657 13.5943C10.152 13.5013 10.2456 13.3643 10.2438 13.0848C10.2322 11.6473 10.2371 10.2097 10.2395 8.77221C10.2401 8.38989 10.3038 8.32811 10.6861 8.32566C11.154 8.32199 11.622 8.32261 12.0899 8.32505C12.531 8.32689 12.5989 8.39662 12.5989 8.84623C12.6001 10.2837 12.6026 11.7213 12.5964 13.1588C12.5958 13.368 12.6509 13.4903 12.8644 13.5692C13.9275 13.9632 14.4346 14.7107 14.4359 15.8564C14.4377 17.1612 14.4359 18.4666 14.4359 19.7714C14.4359 21.4989 14.4359 23.2269 14.4359 24.9844H17.6785C17.6639 24.7831 17.6418 24.6229 17.6418 24.462C17.64 21.5154 17.6376 18.5694 17.6431 15.6228C17.6449 14.7138 18.2425 13.8861 19.1032 13.606C19.3822 13.5154 19.4819 13.3821 19.4788 13.0848C19.4635 11.6681 19.4715 10.2507 19.4727 8.83338C19.4727 8.38378 19.532 8.32689 19.9877 8.32505C20.4251 8.32322 20.8631 8.32383 21.3005 8.32505C21.8021 8.32628 21.8394 8.36359 21.8394 8.86764C21.84 10.2948 21.8406 11.7225 21.8394 13.1496C21.8394 13.3325 21.848 13.4958 22.0718 13.5515C23.0359 13.7907 23.6947 14.7058 23.6813 15.9323C23.6519 18.644 23.6721 21.3557 23.6721 24.068C23.6721 24.3525 23.6721 24.6363 23.6721 24.9642H23.6727Z" fill="#5A5A5A"/>
<path d="M18.5196 61.1036C14.9791 61.1036 11.4391 61.1067 7.89851 61.1024C6.19061 61.1006 4.48271 61.0853 2.77482 61.0749C2.35885 61.0724 2.2726 60.9862 2.27138 60.5733C2.26954 59.564 2.26954 58.5553 2.27138 57.5459C2.27199 57.1471 2.37659 57.0468 2.78155 57.0443C3.03602 57.0425 3.2911 57.029 3.54435 57.048C3.83308 57.0688 3.93584 56.9428 3.90342 56.6712C3.89975 56.6412 3.90342 56.61 3.90342 56.5794C3.90342 50.8709 3.90342 45.1625 3.90342 39.4546C3.90342 38.9695 3.90342 38.9677 3.4165 38.9615C3.07088 38.9573 2.72466 38.9573 2.37904 38.9597C2.12457 38.9615 2.00161 38.8313 2.001 38.5853C1.99978 37.4928 1.99917 36.4022 2.00223 35.3115C2.00345 35.0637 2.13803 34.9426 2.38822 34.9426C3.7089 34.9426 5.02958 34.9457 6.35027 34.9383C7.07208 34.934 7.7939 34.9004 8.51572 34.8998C10.6114 34.8973 12.7072 34.9084 14.8029 34.9077C17.0815 34.9077 19.3607 34.8998 21.6394 34.8973C23.6635 34.8955 25.6871 34.8937 27.7112 34.8992C28.2495 34.9004 28.7878 34.9285 29.3261 34.9426C29.5739 34.9493 29.7023 35.0723 29.7023 35.3225C29.7023 36.4132 29.7035 37.5038 29.7017 38.5945C29.7017 38.8465 29.5696 38.964 29.3176 38.9585C29.0937 38.9536 28.8698 38.9634 28.6459 38.9585C28.4544 38.9536 28.3596 39.0337 28.3682 39.2295C28.3719 39.3108 28.3676 39.3928 28.3676 39.4742C28.3676 45.1618 28.3676 50.8501 28.3676 56.5378C28.3676 56.8743 28.5352 57.0427 28.8704 57.0431C29.1145 57.0431 29.3585 57.0449 29.6026 57.0437C29.8516 57.0425 29.9935 57.1722 29.9947 57.4132C30.0015 58.5143 30.0021 59.6147 29.9947 60.7158C29.9929 61.0088 29.7935 61.0755 29.5359 61.0767C28.1327 61.0816 26.7288 61.0994 25.3255 61.1024C23.0567 61.1073 20.7879 61.1036 18.5196 61.1036ZM23.6727 56.9642C23.7039 56.9709 23.7516 56.9893 23.7999 56.9905C24.3688 57.004 24.9383 57.0162 25.5072 57.0254C25.9464 57.0321 25.9483 57.0297 25.9483 56.5953C25.9483 50.8654 25.9483 45.1362 25.9483 39.4063C25.9483 38.975 25.9342 38.9622 25.5035 38.9622C19.2867 38.9609 13.0699 38.9597 6.85248 38.9585C6.50136 38.9585 6.32559 39.1396 6.32519 39.5017C6.32519 45.1704 6.32519 50.8385 6.32519 56.5073C6.32519 56.5886 6.32947 56.6706 6.32519 56.7519C6.31417 56.9587 6.40777 57.0498 6.61575 57.0437C7.01214 57.0327 7.40914 57.0278 7.80553 57.026C8.3995 57.0223 8.38298 57.0241 8.38176 56.4577C8.37564 53.5319 8.37013 50.6055 8.3842 47.6797C8.3891 46.685 8.95554 45.921 9.88657 45.5943C10.152 45.5013 10.2456 45.3643 10.2438 45.0848C10.2322 43.6473 10.2371 42.2097 10.2395 40.7722C10.2401 40.3899 10.3038 40.3281 10.6861 40.3257C11.154 40.322 11.622 40.3226 12.0899 40.3251C12.531 40.3269 12.5989 40.3966 12.5989 40.8462C12.6001 42.2838 12.6026 43.7213 12.5964 45.1588C12.5958 45.368 12.6509 45.4903 12.8644 45.5692C13.9275 45.9632 14.4346 46.7107 14.4359 47.8564C14.4377 49.1612 14.4359 50.4666 14.4359 51.7714C14.4359 53.4989 14.4359 55.2269 14.4359 56.9844H17.6785C17.6639 56.7831 17.6418 56.6229 17.6418 56.462C17.64 53.5154 17.6376 50.5694 17.6431 47.6228C17.6449 46.7138 18.2425 45.8861 19.1032 45.606C19.3822 45.5154 19.4819 45.3821 19.4788 45.0848C19.4635 43.6681 19.4715 42.2507 19.4727 40.8334C19.4727 40.3838 19.532 40.3269 19.9877 40.3251C20.4251 40.3232 20.8631 40.3238 21.3005 40.3251C21.8021 40.3263 21.8394 40.3636 21.8394 40.8676C21.84 42.2948 21.8406 43.7225 21.8394 45.1496C21.8394 45.3325 21.848 45.4958 22.0718 45.5515C23.0359 45.7907 23.6947 46.7058 23.6813 47.9323C23.6519 50.644 23.6721 53.3557 23.6721 56.068C23.6721 56.3525 23.6721 56.6363 23.6721 56.9642H23.6727Z" fill="#B7ABA5"/>
<path d="M18.5196 93.1036C14.9791 93.1036 11.4391 93.1067 7.89851 93.1024C6.19061 93.1006 4.48271 93.0853 2.77482 93.0749C2.35885 93.0724 2.2726 92.9862 2.27138 92.5733C2.26954 91.564 2.26954 90.5553 2.27138 89.5459C2.27199 89.1471 2.37659 89.0468 2.78155 89.0443C3.03602 89.0425 3.2911 89.029 3.54435 89.048C3.83308 89.0688 3.93584 88.9428 3.90342 88.6712C3.89975 88.6412 3.90342 88.61 3.90342 88.5794C3.90342 82.8709 3.90342 77.1625 3.90342 71.4546C3.90342 70.9695 3.90342 70.9677 3.4165 70.9615C3.07088 70.9573 2.72466 70.9573 2.37904 70.9597C2.12457 70.9615 2.00161 70.8313 2.001 70.5853C1.99978 69.4928 1.99917 68.4022 2.00223 67.3115C2.00345 67.0637 2.13803 66.9426 2.38822 66.9426C3.7089 66.9426 5.02958 66.9457 6.35027 66.9383C7.07208 66.934 7.7939 66.9004 8.51572 66.8998C10.6114 66.8973 12.7072 66.9084 14.8029 66.9077C17.0815 66.9077 19.3607 66.8998 21.6394 66.8973C23.6635 66.8955 25.6871 66.8937 27.7112 66.8992C28.2495 66.9004 28.7878 66.9285 29.3261 66.9426C29.5739 66.9493 29.7023 67.0723 29.7023 67.3225C29.7023 68.4132 29.7035 69.5038 29.7017 70.5945C29.7017 70.8465 29.5696 70.964 29.3176 70.9585C29.0937 70.9536 28.8698 70.9634 28.6459 70.9585C28.4544 70.9536 28.3596 71.0337 28.3682 71.2295C28.3719 71.3108 28.3676 71.3928 28.3676 71.4742C28.3676 77.1618 28.3676 82.8501 28.3676 88.5378C28.3676 88.8743 28.5352 89.0427 28.8704 89.0431C29.1145 89.0431 29.3585 89.0449 29.6026 89.0437C29.8516 89.0425 29.9935 89.1722 29.9947 89.4132C30.0015 90.5143 30.0021 91.6147 29.9947 92.7158C29.9929 93.0088 29.7935 93.0755 29.5359 93.0767C28.1327 93.0816 26.7288 93.0994 25.3255 93.1024C23.0567 93.1073 20.7879 93.1036 18.5196 93.1036ZM23.6727 88.9642C23.7039 88.9709 23.7516 88.9893 23.7999 88.9905C24.3688 89.004 24.9383 89.0162 25.5072 89.0254C25.9464 89.0321 25.9483 89.0297 25.9483 88.5953C25.9483 82.8654 25.9483 77.1362 25.9483 71.4063C25.9483 70.975 25.9342 70.9622 25.5035 70.9622C19.2867 70.9609 13.0699 70.9597 6.85248 70.9585C6.50136 70.9585 6.32559 71.1396 6.32519 71.5017C6.32519 77.1704 6.32519 82.8385 6.32519 88.5073C6.32519 88.5886 6.32947 88.6706 6.32519 88.7519C6.31417 88.9587 6.40777 89.0498 6.61575 89.0437C7.01214 89.0327 7.40914 89.0278 7.80553 89.026C8.3995 89.0223 8.38298 89.0241 8.38176 88.4577C8.37564 85.5319 8.37013 82.6055 8.3842 79.6797C8.3891 78.685 8.95554 77.921 9.88657 77.5943C10.152 77.5013 10.2456 77.3643 10.2438 77.0848C10.2322 75.6473 10.2371 74.2097 10.2395 72.7722C10.2401 72.3899 10.3038 72.3281 10.6861 72.3257C11.154 72.322 11.622 72.3226 12.0899 72.3251C12.531 72.3269 12.5989 72.3966 12.5989 72.8462C12.6001 74.2838 12.6026 75.7213 12.5964 77.1588C12.5958 77.368 12.6509 77.4903 12.8644 77.5692C13.9275 77.9632 14.4346 78.7107 14.4359 79.8564C14.4377 81.1612 14.4359 82.4666 14.4359 83.7714C14.4359 85.4989 14.4359 87.2269 14.4359 88.9844H17.6785C17.6639 88.7831 17.6418 88.6229 17.6418 88.462C17.64 85.5154 17.6376 82.5694 17.6431 79.6228C17.6449 78.7138 18.2425 77.8861 19.1032 77.606C19.3822 77.5154 19.4819 77.3821 19.4788 77.0848C19.4635 75.6681 19.4715 74.2507 19.4727 72.8334C19.4727 72.3838 19.532 72.3269 19.9877 72.3251C20.4251 72.3232 20.8631 72.3238 21.3005 72.3251C21.8021 72.3263 21.8394 72.3636 21.8394 72.8676C21.84 74.2948 21.8406 75.7225 21.8394 77.1496C21.8394 77.3325 21.848 77.4958 22.0718 77.5515C23.0359 77.7907 23.6947 78.7058 23.6813 79.9323C23.6519 82.644 23.6721 85.3557 23.6721 88.068C23.6721 88.3525 23.6721 88.6363 23.6721 88.9642H23.6727Z" fill="white"/>
</svg>
