<svg width="24" height="48" viewBox="0 0 24 48" fill="none" xmlns="http://www.w3.org/2000/svg">
<path fill-rule="evenodd" clip-rule="evenodd" d="M13.3535 8.75H4C3.58579 8.75 3.25 8.41421 3.25 8C3.25 7.58579 3.58579 7.25 4 7.25H13.3535C13.68 6.09575 14.7412 5.25 16 5.25C17.2588 5.25 18.32 6.09575 18.6465 7.25H20C20.4142 7.25 20.75 7.58579 20.75 8C20.75 8.41421 20.4142 8.75 20 8.75H18.6465C18.32 9.90425 17.2588 10.75 16 10.75C14.7412 10.75 13.68 9.90425 13.3535 8.75ZM14.75 8C14.75 7.30964 15.3096 6.75 16 6.75C16.6904 6.75 17.25 7.30964 17.25 8C17.25 8.69036 16.6904 9.25 16 9.25C15.3096 9.25 14.75 8.69036 14.75 8Z" fill="white"/>
<path fill-rule="evenodd" clip-rule="evenodd" d="M10.6465 16.75H20C20.4142 16.75 20.75 16.4142 20.75 16C20.75 15.5858 20.4142 15.25 20 15.25H10.6465C10.32 14.0957 9.25878 13.25 8 13.25C6.74122 13.25 5.67998 14.0957 5.35352 15.25H4C3.58579 15.25 3.25 15.5858 3.25 16C3.25 16.4142 3.58579 16.75 4 16.75H5.35352C5.67998 17.9043 6.74122 18.75 8 18.75C9.25878 18.75 10.32 17.9043 10.6465 16.75ZM6.75 16C6.75 15.3096 7.30964 14.75 8 14.75C8.69036 14.75 9.25 15.3096 9.25 16C9.25 16.6904 8.69036 17.25 8 17.25C7.30964 17.25 6.75 16.6904 6.75 16Z" fill="white"/>
<path fill-rule="evenodd" clip-rule="evenodd" d="M13.3535 32.75H4C3.58579 32.75 3.25 32.4142 3.25 32C3.25 31.5858 3.58579 31.25 4 31.25H13.3535C13.68 30.0957 14.7412 29.25 16 29.25C17.2588 29.25 18.32 30.0957 18.6465 31.25H20C20.4142 31.25 20.75 31.5858 20.75 32C20.75 32.4142 20.4142 32.75 20 32.75H18.6465C18.32 33.9043 17.2588 34.75 16 34.75C14.7412 34.75 13.68 33.9043 13.3535 32.75ZM14.75 32C14.75 31.3096 15.3096 30.75 16 30.75C16.6904 30.75 17.25 31.3096 17.25 32C17.25 32.6904 16.6904 33.25 16 33.25C15.3096 33.25 14.75 32.6904 14.75 32Z" fill="#4D4D4D"/>
<path fill-rule="evenodd" clip-rule="evenodd" d="M10.6465 40.75H20C20.4142 40.75 20.75 40.4142 20.75 40C20.75 39.5858 20.4142 39.25 20 39.25H10.6465C10.32 38.0957 9.25878 37.25 8 37.25C6.74122 37.25 5.67998 38.0957 5.35352 39.25H4C3.58579 39.25 3.25 39.5858 3.25 40C3.25 40.4142 3.58579 40.75 4 40.75H5.35352C5.67998 41.9043 6.74122 42.75 8 42.75C9.25878 42.75 10.32 41.9043 10.6465 40.75ZM6.75 40C6.75 39.3096 7.30964 38.75 8 38.75C8.69036 38.75 9.25 39.3096 9.25 40C9.25 40.6904 8.69036 41.25 8 41.25C7.30964 41.25 6.75 40.6904 6.75 40Z" fill="#4D4D4D"/>
</svg>
