<svg width="32" height="160" viewBox="0 0 32 160" fill="none" xmlns="http://www.w3.org/2000/svg">
<path d="M21.6821 5.9043C20.5303 5.96749 19.412 6.28893 18.4226 6.84121C17.4424 7.38837 16.6174 8.14604 16.0168 9.05062C16.0092 9.06207 16.0054 9.0678 16 9.0678C15.9946 9.0678 15.9908 9.06207 15.9832 9.05062C15.3826 8.14604 14.5576 7.38837 13.5774 6.84121C12.588 6.28893 11.4697 5.96749 10.3179 5.9043C8.50965 5.9043 6.7755 6.57262 5.4969 7.76224C4.21831 8.95186 3.5 10.5653 3.5 12.2477C3.5 18.3054 16 26.0966 16 26.0966C16 26.0966 28.5 18.3868 28.5 12.2477C28.5 10.5653 27.7817 8.95186 26.5031 7.76224C25.2245 6.57262 23.4904 5.9043 21.6821 5.9043Z" stroke="#535353" stroke-width="2" stroke-linecap="round" stroke-linejoin="round"/>
<path d="M21.6821 37.9043C20.5303 37.9675 19.412 38.2889 18.4226 38.8412C17.4424 39.3884 16.6174 40.146 16.0168 41.0506C16.0092 41.0621 16.0054 41.0678 16 41.0678C15.9946 41.0678 15.9908 41.0621 15.9832 41.0506C15.3826 40.146 14.5576 39.3884 13.5774 38.8412C12.588 38.2889 11.4697 37.9675 10.3179 37.9043C8.50965 37.9043 6.7755 38.5726 5.4969 39.7622C4.21831 40.9519 3.5 42.5653 3.5 44.2477C3.5 50.3054 16 58.0966 16 58.0966C16 58.0966 28.5 50.3868 28.5 44.2477C28.5 42.5653 27.7817 40.9519 26.5031 39.7622C25.2245 38.5726 23.4904 37.9043 21.6821 37.9043Z" stroke="#B7ABA5" stroke-width="2" stroke-linecap="round" stroke-linejoin="round"/>
<path d="M21.6821 69.9043C20.5303 69.9675 19.412 70.2889 18.4226 70.8412C17.4424 71.3884 16.6174 72.146 16.0168 73.0506C16.0092 73.0621 16.0054 73.0678 16 73.0678C15.9946 73.0678 15.9908 73.0621 15.9832 73.0506C15.3826 72.146 14.5576 71.3884 13.5774 70.8412C12.588 70.2889 11.4697 69.9675 10.3179 69.9043C8.50965 69.9043 6.7755 70.5726 5.4969 71.7622C4.21831 72.9519 3.5 74.5653 3.5 76.2477C3.5 82.3054 16 90.0966 16 90.0966C16 90.0966 28.5 82.3868 28.5 76.2477C28.5 74.5653 27.7817 72.9519 26.5031 71.7622C25.2245 70.5726 23.4904 69.9043 21.6821 69.9043Z" stroke="white" stroke-width="2" stroke-linecap="round" stroke-linejoin="round"/>
<path d="M20.5457 103.818C19.6243 103.87 18.7296 104.13 17.9381 104.578C17.1558 105.02 16.4971 105.632 16.0169 106.363C16.0092 106.374 16.0054 106.38 16 106.38C15.9946 106.38 15.9908 106.374 15.9831 106.363C15.5029 105.632 14.8442 105.02 14.0619 104.578C13.2704 104.13 12.3757 103.87 11.4543 103.818C10.0077 103.818 8.6204 104.36 7.59752 105.324C6.57465 106.288 6 107.596 6 108.959C6 113.868 16 120.182 16 120.182C16 120.182 26 113.934 26 108.959C26 107.596 25.4254 106.288 24.4025 105.324C23.3796 104.36 21.9923 103.818 20.5457 103.818Z" stroke="#C7B5A1" stroke-width="1.5" stroke-linecap="round" stroke-linejoin="round"/>
<path d="M20.5457 135.818C19.6243 135.87 18.7296 136.13 17.9381 136.578C17.1558 137.02 16.4971 137.632 16.0169 138.363C16.0092 138.374 16.0054 138.38 16 138.38C15.9946 138.38 15.9908 138.374 15.9831 138.363C15.5029 137.632 14.8442 137.02 14.0619 136.578C13.2704 136.13 12.3757 135.87 11.4543 135.818C10.0077 135.818 8.6204 136.36 7.59752 137.324C6.57465 138.288 6 139.596 6 140.959C6 145.868 16 152.182 16 152.182C16 152.182 26 145.934 26 140.959C26 139.596 25.4254 138.288 24.4025 137.324C23.3796 136.36 21.9923 135.818 20.5457 135.818Z" fill="#C17272" stroke="#C17272" stroke-width="2" stroke-linecap="round" stroke-linejoin="round"/>
</svg>
