<svg width="32" height="96" viewBox="0 0 32 96" fill="none" xmlns="http://www.w3.org/2000/svg">
<g clip-path="url(#clip0_2120_106311)">
<path d="M21.5 4H10.5C9.122 4 8 5.121 8 6.5V13.686C8 18.051 11.343 21.71 15.5 21.976V27.001H11.5C11.224 27.001 11 27.225 11 27.501C11 27.777 11.224 28.001 11.5 28.001H20.5C20.776 28.001 21 27.777 21 27.501C21 27.225 20.776 27.001 20.5 27.001H16.5V21.977C18.405 21.861 20.185 21.087 21.571 19.742C23.137 18.222 24 16.183 24 14.001V6.5C24 5.121 22.878 4 21.5 4ZM23 14C23 15.909 22.245 17.693 20.875 19.024C19.504 20.353 17.689 21.044 15.785 20.996C12.044 20.884 9.001 17.604 9.001 13.685V6.5C9.001 5.673 9.674 5 10.501 5H21.501C22.328 5 23.001 5.673 23.001 6.5L23 14Z" fill="#535353"/>
</g>
<g clip-path="url(#clip1_2120_106311)">
<path d="M21.5 36H10.5C9.122 36 8 37.121 8 38.5V45.686C8 50.051 11.343 53.71 15.5 53.976V59.001H11.5C11.224 59.001 11 59.225 11 59.501C11 59.777 11.224 60.001 11.5 60.001H20.5C20.776 60.001 21 59.777 21 59.501C21 59.225 20.776 59.001 20.5 59.001H16.5V53.977C18.405 53.861 20.185 53.087 21.571 51.742C23.137 50.222 24 48.183 24 46.001V38.5C24 37.121 22.878 36 21.5 36ZM23 46C23 47.909 22.245 49.693 20.875 51.024C19.504 52.353 17.689 53.044 15.785 52.996C12.044 52.884 9.001 49.604 9.001 45.685V38.5C9.001 37.673 9.674 37 10.501 37H21.501C22.328 37 23.001 37.673 23.001 38.5L23 46Z" fill="#B7ABA5"/>
</g>
<g clip-path="url(#clip2_2120_106311)">
<path d="M21.5 68H10.5C9.122 68 8 69.121 8 70.5V77.686C8 82.051 11.343 85.71 15.5 85.976V91.001H11.5C11.224 91.001 11 91.225 11 91.501C11 91.777 11.224 92.001 11.5 92.001H20.5C20.776 92.001 21 91.777 21 91.501C21 91.225 20.776 91.001 20.5 91.001H16.5V85.977C18.405 85.861 20.185 85.087 21.571 83.742C23.137 82.222 24 80.183 24 78.001V70.5C24 69.121 22.878 68 21.5 68ZM23 78C23 79.909 22.245 81.693 20.875 83.024C19.504 84.353 17.689 85.044 15.785 84.996C12.044 84.884 9.001 81.604 9.001 77.685V70.5C9.001 69.673 9.674 69 10.501 69H21.501C22.328 69 23.001 69.673 23.001 70.5L23 78Z" fill="white"/>
</g>
<defs>
<clipPath id="clip0_2120_106311">
<rect width="24" height="24" fill="white" transform="translate(4 4)"/>
</clipPath>
<clipPath id="clip1_2120_106311">
<rect width="24" height="24" fill="white" transform="translate(4 36)"/>
</clipPath>
<clipPath id="clip2_2120_106311">
<rect width="24" height="24" fill="white" transform="translate(4 68)"/>
</clipPath>
</defs>
</svg>
