<svg width="24" height="24" viewBox="0 0 24 24" fill="none" xmlns="http://www.w3.org/2000/svg">
<path fill-rule="evenodd" clip-rule="evenodd" d="M4.5 6H7.41147C7.88585 6 8.32264 5.7526 8.56779 5.35301L8.625 5.25C8.85482 4.79035 9.32462 4.5 9.83853 4.5H14.1609C14.6357 4.5 15.073 4.74731 15.3189 5.14697L15.3763 5.25C15.607 5.70976 16.0774 6 16.5917 6H19.5C20.3284 6 21 6.67157 21 7.5V18C21 18.8284 20.3284 19.5 19.5 19.5H4.5C3.67157 19.5 3 18.8284 3 18V7.5C3 6.67157 3.67157 6 4.5 6Z" stroke="#B7ABA5" stroke-width="1.8" stroke-linecap="round" stroke-linejoin="round"/>
<circle cx="12" cy="12.75" r="3.75" stroke="#B7ABA5" stroke-width="1.8" stroke-linecap="round" stroke-linejoin="round"/>
</svg>
