<svg width="32" height="96" viewBox="0 0 32 96" fill="none" xmlns="http://www.w3.org/2000/svg">
<path d="M19.2957 15.6391C18.9715 15.2864 18.5424 15.0918 18.0848 15.0918C17.6273 15.0918 17.1981 15.2864 16.9131 15.6027L16.8265 15.6764V15.0918C16.8265 14.0891 16.0789 13.2736 15.1597 13.2736H11.8263C10.9071 13.2736 10.1595 14.0891 10.1595 15.0918V18.7282C10.1595 19.7309 10.9071 20.5464 11.8263 20.5464H14.9539L16.8748 22.7273C17.1981 23.08 17.6273 23.2745 18.0848 23.2745C18.5424 23.2745 18.9715 23.0809 19.2957 22.7273L21.3333 20.5036C21.6575 20.1509 21.8358 19.6818 21.8358 19.1827C21.8358 18.6836 21.6575 18.2155 21.3333 17.8627L19.2957 15.6391ZM10.9929 18.7273V15.0909C10.9929 14.59 11.3662 14.1818 11.8263 14.1818H15.1597C15.6197 14.1818 15.9931 14.59 15.9931 15.0909V18.7273C15.9931 19.2282 15.6197 19.6364 15.1597 19.6364H11.8263C11.3662 19.6364 10.9929 19.2282 10.9929 18.7273ZM20.7441 19.86L18.7065 22.0836C18.3757 22.4455 17.7907 22.44 17.4698 22.09L15.9281 20.34C16.4614 20.0364 16.8265 19.4282 16.8265 18.7273V16.8291L17.464 16.2818C17.6298 16.1009 17.8507 16.0009 18.0848 16.0009C18.319 16.0009 18.5407 16.1009 18.7065 16.2818L20.7441 18.5055C20.9099 18.6864 21.0024 18.9273 21.0024 19.1827C21.0024 19.4382 20.9108 19.6782 20.7441 19.86ZM25.4393 6.77455C25.0309 6.28273 24.4492 6 23.8417 6H8.15944C7.55442 6.00091 6.9744 6.28182 6.56605 6.77C6.1552 7.26091 5.95269 7.92182 6.00936 8.58455L7.16357 22.1245C7.35191 24.3336 9.02114 26 11.0479 26H20.8716C22.8842 25.9991 24.5526 24.3445 24.7526 22.1509L25.9893 8.59818C26.0501 7.93364 25.8493 7.26909 25.4393 6.77455ZM25.1609 8.50909L23.9242 22.0618C23.7667 23.7882 22.4533 25.09 20.8716 25.09H11.0471C9.45366 25.0909 8.14028 23.78 7.99277 22.0409L6.83939 8.5C6.80439 8.08545 6.92606 7.68909 7.18191 7.38273C7.43608 7.07818 7.7836 6.91091 8.15944 6.91091H23.8417C24.2192 6.91 24.5668 7.07818 24.8218 7.38455C25.0751 7.68909 25.1976 8.09909 25.1609 8.50909Z" fill="#535353"/>
<path d="M19.2957 47.6391C18.9715 47.2864 18.5424 47.0918 18.0848 47.0918C17.6273 47.0918 17.1981 47.2864 16.9131 47.6027L16.8265 47.6764V47.0918C16.8265 46.0891 16.0789 45.2736 15.1597 45.2736H11.8263C10.9071 45.2736 10.1595 46.0891 10.1595 47.0918V50.7282C10.1595 51.7309 10.9071 52.5464 11.8263 52.5464H14.9539L16.8748 54.7273C17.1981 55.08 17.6273 55.2745 18.0848 55.2745C18.5424 55.2745 18.9715 55.0809 19.2957 54.7273L21.3333 52.5036C21.6575 52.1509 21.8358 51.6818 21.8358 51.1827C21.8358 50.6836 21.6575 50.2155 21.3333 49.8627L19.2957 47.6391ZM10.9929 50.7273V47.0909C10.9929 46.59 11.3662 46.1818 11.8263 46.1818H15.1597C15.6197 46.1818 15.9931 46.59 15.9931 47.0909V50.7273C15.9931 51.2282 15.6197 51.6364 15.1597 51.6364H11.8263C11.3662 51.6364 10.9929 51.2282 10.9929 50.7273ZM20.7441 51.86L18.7065 54.0836C18.3757 54.4455 17.7907 54.44 17.4698 54.09L15.9281 52.34C16.4614 52.0364 16.8265 51.4282 16.8265 50.7273V48.8291L17.464 48.2818C17.6298 48.1009 17.8507 48.0009 18.0848 48.0009C18.319 48.0009 18.5407 48.1009 18.7065 48.2818L20.7441 50.5055C20.9099 50.6864 21.0024 50.9273 21.0024 51.1827C21.0024 51.4382 20.9108 51.6782 20.7441 51.86ZM25.4393 38.7745C25.0309 38.2827 24.4492 38 23.8417 38H8.15944C7.55442 38.0009 6.9744 38.2818 6.56605 38.77C6.1552 39.2609 5.95269 39.9218 6.00936 40.5845L7.16357 54.1245C7.35191 56.3336 9.02114 58 11.0479 58H20.8716C22.8842 57.9991 24.5526 56.3445 24.7526 54.1509L25.9893 40.5982C26.0501 39.9336 25.8493 39.2691 25.4393 38.7745ZM25.1609 40.5091L23.9242 54.0618C23.7667 55.7882 22.4533 57.09 20.8716 57.09H11.0471C9.45366 57.0909 8.14028 55.78 7.99277 54.0409L6.83939 40.5C6.80439 40.0855 6.92606 39.6891 7.18191 39.3827C7.43608 39.0782 7.7836 38.9109 8.15944 38.9109H23.8417C24.2192 38.91 24.5668 39.0782 24.8218 39.3845C25.0751 39.6891 25.1976 40.0991 25.1609 40.5091Z" fill="#B7ABA5"/>
<path d="M19.2957 79.6391C18.9715 79.2864 18.5424 79.0918 18.0848 79.0918C17.6273 79.0918 17.1981 79.2864 16.9131 79.6027L16.8265 79.6764V79.0918C16.8265 78.0891 16.0789 77.2736 15.1597 77.2736H11.8263C10.9071 77.2736 10.1595 78.0891 10.1595 79.0918V82.7282C10.1595 83.7309 10.9071 84.5464 11.8263 84.5464H14.9539L16.8748 86.7273C17.1981 87.08 17.6273 87.2745 18.0848 87.2745C18.5424 87.2745 18.9715 87.0809 19.2957 86.7273L21.3333 84.5036C21.6575 84.1509 21.8358 83.6818 21.8358 83.1827C21.8358 82.6836 21.6575 82.2155 21.3333 81.8627L19.2957 79.6391ZM10.9929 82.7273V79.0909C10.9929 78.59 11.3662 78.1818 11.8263 78.1818H15.1597C15.6197 78.1818 15.9931 78.59 15.9931 79.0909V82.7273C15.9931 83.2282 15.6197 83.6364 15.1597 83.6364H11.8263C11.3662 83.6364 10.9929 83.2282 10.9929 82.7273ZM20.7441 83.86L18.7065 86.0836C18.3757 86.4455 17.7907 86.44 17.4698 86.09L15.9281 84.34C16.4614 84.0364 16.8265 83.4282 16.8265 82.7273V80.8291L17.464 80.2818C17.6298 80.1009 17.8507 80.0009 18.0848 80.0009C18.319 80.0009 18.5407 80.1009 18.7065 80.2818L20.7441 82.5055C20.9099 82.6864 21.0024 82.9273 21.0024 83.1827C21.0024 83.4382 20.9108 83.6782 20.7441 83.86ZM25.4393 70.7745C25.0309 70.2827 24.4492 70 23.8417 70H8.15944C7.55442 70.0009 6.9744 70.2818 6.56605 70.77C6.1552 71.2609 5.95269 71.9218 6.00936 72.5845L7.16357 86.1245C7.35191 88.3336 9.02114 90 11.0479 90H20.8716C22.8842 89.9991 24.5526 88.3445 24.7526 86.1509L25.9893 72.5982C26.0501 71.9336 25.8493 71.2691 25.4393 70.7745ZM25.1609 72.5091L23.9242 86.0618C23.7667 87.7882 22.4533 89.09 20.8716 89.09H11.0471C9.45366 89.0909 8.14028 87.78 7.99277 86.0409L6.83939 72.5C6.80439 72.0855 6.92606 71.6891 7.18191 71.3827C7.43608 71.0782 7.7836 70.9109 8.15944 70.9109H23.8417C24.2192 70.91 24.5668 71.0782 24.8218 71.3845C25.0751 71.6891 25.1976 72.0991 25.1609 72.5091Z" fill="white"/>
</svg>
